<svg width="2193" height="2998" viewBox="0 0 2193 2998" fill="none" xmlns="http://www.w3.org/2000/svg">
<g clip-path="url(#clip0)">
<path fill-rule="evenodd" clip-rule="evenodd" d="M1917.86 837C1917.95 831.845 1918 826.678 1918 821.5C1918 367.798 1550.2 0 1096.5 0C642.798 0 275 367.798 275 821.5C275 826.678 275.048 831.845 275.143 837H275V2998H1918V837H1917.86Z" fill="#2A265B"/>
<path fill-rule="evenodd" clip-rule="evenodd" d="M1887.58 864.391C1887.67 859.301 1887.72 854.2 1887.72 849.088C1887.72 401.136 1533.41 38 1096.36 38C659.303 38 305 401.136 305 849.088C305 854.2 305.046 859.301 305.138 864.391H305V2998H1887.72V864.391H1887.58Z" fill="url(#paint0_linear)"/>
<mask id="path-3-inside-1" fill="white">
<path fill-rule="evenodd" clip-rule="evenodd" d="M1789.88 843.247C1789.96 838.949 1790 834.642 1790 830.325C1790 446.86 1479.51 136 1096.5 136C713.491 136 403 446.86 403 830.325C403 834.642 403.039 838.949 403.118 843.247H403V2999H1790V843.247H1789.88Z"/>
</mask>
<path fill-rule="evenodd" clip-rule="evenodd" d="M1789.88 843.247C1789.96 838.949 1790 834.642 1790 830.325C1790 446.86 1479.51 136 1096.5 136C713.491 136 403 446.86 403 830.325C403 834.642 403.039 838.949 403.118 843.247H403V2999H1790V843.247H1789.88Z" fill="#7FDCC4"/>
<path d="M1789.88 843.247L1769.89 842.882L1769.51 863.247H1789.88V843.247ZM403.118 843.247V863.247H423.486L423.114 842.882L403.118 843.247ZM403 843.247V823.247H383V843.247H403ZM403 2999H383V3019H403V2999ZM1790 2999V3019H1810V2999H1790ZM1790 843.247H1810V823.247H1790V843.247ZM1770 830.325C1770 834.52 1769.96 838.706 1769.89 842.882L1809.88 843.612C1809.96 839.192 1810 834.763 1810 830.325H1770ZM1096.5 156C1468.44 156 1770 457.883 1770 830.325H1810C1810 435.837 1490.58 116 1096.5 116V156ZM423 830.325C423 457.883 724.559 156 1096.5 156V116C702.422 116 383 435.837 383 830.325H423ZM423.114 842.882C423.038 838.706 423 834.52 423 830.325H383C383 834.763 383.04 839.192 383.121 843.611L423.114 842.882ZM403 863.247H403.118V823.247H403V863.247ZM423 2999V843.247H383V2999H423ZM1790 2979H403V3019H1790V2979ZM1770 843.247V2999H1810V843.247H1770ZM1789.88 863.247H1790V823.247H1789.88V863.247Z" fill="#2A265B" mask="url(#path-3-inside-1)"/>
<g filter="url(#filter0_b)">
<path fill-rule="evenodd" clip-rule="evenodd" d="M1745.69 838C1745.76 833.99 1745.8 829.972 1745.8 825.945C1745.8 466.99 1455.05 176 1096.4 176C737.746 176 447 466.99 447 825.945C447 829.972 447.037 833.99 447.109 838H447V2998H1746V838H1745.69Z" fill="#2A265B"/>
</g>
<mask id="path-6-inside-2" fill="white">
<path fill-rule="evenodd" clip-rule="evenodd" d="M1657 852.5V1984C1657 2039.23 1612.23 2084 1557 2084H636C580.771 2084 536 2039.23 536 1984V852.5V845.025C536 845.011 536.011 845 536.025 845C536.038 845 536.049 844.989 536.049 844.975C540.077 538.888 789.456 292 1096.5 292C1403.54 292 1652.92 538.888 1656.95 844.975C1656.95 844.989 1656.96 845 1656.98 845C1656.99 845 1657 845.011 1657 845.025V852.5Z"/>
</mask>
<path fill-rule="evenodd" clip-rule="evenodd" d="M1657 852.5V1984C1657 2039.23 1612.23 2084 1557 2084H636C580.771 2084 536 2039.23 536 1984V852.5V845.025C536 845.011 536.011 845 536.025 845C536.038 845 536.049 844.989 536.049 844.975C540.077 538.888 789.456 292 1096.5 292C1403.54 292 1652.92 538.888 1656.95 844.975C1656.95 844.989 1656.96 845 1656.98 845C1656.99 845 1657 845.011 1657 845.025V852.5Z" fill="#2A265B"/>
<path d="M536.049 844.975L556.048 845.239L536.049 844.975ZM1656.95 844.975L1636.95 845.239L1656.95 844.975ZM1637 852.5V1984H1677V852.5H1637ZM1557 2064H636V2104H1557V2064ZM556 1984V852.5H516V1984H556ZM556 852.5V845.025H516V852.5H556ZM556.048 845.239C559.931 550.079 800.414 312 1096.5 312V272C778.499 272 520.222 527.697 516.051 844.712L556.048 845.239ZM1096.5 312C1392.59 312 1633.07 550.079 1636.95 845.239L1676.95 844.712C1672.78 527.697 1414.5 272 1096.5 272V312ZM1637 845.025V852.5H1677V845.025H1637ZM1656.98 865C1645.94 865 1637 856.057 1637 845.025H1677C1677 833.965 1668.03 825 1656.98 825V865ZM536.025 865C547.125 865 555.905 856.05 556.048 845.239L516.051 844.712C516.193 833.928 524.951 825 536.025 825V865ZM556 845.025C556 856.057 547.057 865 536.025 865V825C524.965 825 516 833.966 516 845.025H556ZM1636.95 845.239C1637.09 856.045 1645.87 865 1656.98 865V825C1668.05 825 1676.81 833.933 1676.95 844.712L1636.95 845.239ZM636 2064C591.817 2064 556 2028.18 556 1984H516C516 2050.27 569.726 2104 636 2104V2064ZM1637 1984C1637 2028.18 1601.18 2064 1557 2064V2104C1623.27 2104 1677 2050.27 1677 1984H1637Z" fill="#FCCD93" mask="url(#path-6-inside-2)"/>
<rect x="248" y="1225" width="230" height="69" rx="34.5" fill="#7FDCC4" stroke="#2A265B" stroke-width="20"/>
<rect x="248" y="1299" width="230" height="69" rx="34.5" fill="#7FDCC4" stroke="#2A265B" stroke-width="20"/>
<rect x="248" y="1374" width="230" height="69" rx="34.5" fill="#7FDCC4" stroke="#2A265B" stroke-width="20"/>
<rect x="1715" y="1225" width="230" height="69" rx="34.5" fill="#7FDCC4" stroke="#2A265B" stroke-width="20"/>
<rect x="1715" y="1299" width="230" height="69" rx="34.5" fill="#7FDCC4" stroke="#2A265B" stroke-width="20"/>
<rect x="1715" y="1374" width="230" height="69" rx="34.5" fill="#7FDCC4" stroke="#2A265B" stroke-width="20"/>
<mask id="mask0" mask-type="alpha" maskUnits="userSpaceOnUse" x="334" y="80" width="1525" height="772">
<path fill-rule="evenodd" clip-rule="evenodd" d="M1096.5 100C686.422 100 354 432.211 354 842C354 847.523 349.523 852 344 852C338.477 852 334 847.523 334 842C334 421.153 675.389 80 1096.5 80C1517.61 80 1859 421.153 1859 842C1859 847.523 1854.52 852 1849 852C1843.48 852 1839 847.523 1839 842C1839 432.211 1506.58 100 1096.5 100Z" fill="#2A265B"/>
</mask>
<g mask="url(#mask0)">
<path d="M1486 140.5C1486 212.573 1311.84 271 1097 271C882.161 271 708 212.573 708 140.5C708 68.4268 882.161 10 1097 10C1311.84 10 1486 68.4268 1486 140.5Z" fill="#2A265B"/>
<rect x="263" y="461" width="1666" height="353" fill="#2A265B"/>
</g>
<mask id="mask1" mask-type="alpha" maskUnits="userSpaceOnUse" x="488" y="229" width="1217" height="599">
<path fill-rule="evenodd" clip-rule="evenodd" d="M1096.5 244.518C769.245 244.518 503.961 502.283 503.961 820.241C503.961 824.526 500.388 828 495.98 828C491.573 828 488 824.526 488 820.241C488 493.703 760.44 229 1096.5 229C1432.56 229 1705 493.703 1705 820.241C1705 824.526 1701.43 828 1697.02 828C1692.61 828 1689.04 824.526 1689.04 820.241C1689.04 502.283 1423.76 244.518 1096.5 244.518Z" fill="#5D55C0"/>
</mask>
<g mask="url(#mask1)">
<path d="M1224 264C1224 319.781 1166.69 365 1096 365C1025.31 365 968 319.781 968 264C968 208.219 1025.31 163 1096 163C1166.69 163 1224 208.219 1224 264Z" fill="#5D55C0"/>
<rect x="431" y="631" width="1330" height="197" fill="#5D55C0"/>
</g>
<rect x="363" y="1518" width="20" height="185" rx="10" fill="#2A265B"/>
<rect x="363" y="2014" width="20" height="732" rx="10" fill="#2A265B"/>
<rect x="1849" y="1518" width="20" height="185" rx="10" fill="#2A265B"/>
<rect x="1849" y="2014" width="20" height="732" rx="10" fill="#2A265B"/>
<path d="M1350.5 10H842.5V46V75L859 161.5H1338L1350.5 75V46V10Z" fill="#5D55C0" stroke="#2A265B" stroke-width="20" stroke-linecap="round" stroke-linejoin="round"/>
<path d="M845 18.5C845 35.0685 845 45.5 845 60C828.431 60 815 46.5685 815 30C815 13.4315 828.431 0 845 0C845 23 845 1.93146 845 18.5Z" fill="#2A265B"/>
<path d="M1350 18.5C1350 35.0685 1350 45.5 1350 60C1366.57 60 1380 46.5685 1380 30C1380 13.4315 1366.57 0 1350 0C1350 23 1350 1.93146 1350 18.5Z" fill="#2A265B"/>
<mask id="path-27-inside-3" fill="white">
<path fill-rule="evenodd" clip-rule="evenodd" d="M1342.97 15V111H851.03V15H1342.97ZM845 9H1349V117H845V9Z"/>
</mask>
<path fill-rule="evenodd" clip-rule="evenodd" d="M1342.97 15V111H851.03V15H1342.97ZM845 9H1349V117H845V9Z" fill="#484848"/>
<path d="M1342.97 15H1392.97V-35H1342.97V15ZM1342.97 111V161H1392.97V111H1342.97ZM851.03 111H801.03V161H851.03V111ZM851.03 15V-35H801.03V15H851.03ZM845 9V-41H795V9H845ZM1349 9H1399V-41H1349V9ZM1349 117V167H1399V117H1349ZM845 117H795V167H845V117ZM1342.97 -35H851.03V65H1342.97V-35ZM1392.97 111V15H1292.97V111H1392.97ZM851.03 161H1342.97V61H851.03V161ZM801.03 15V111H901.03V15H801.03ZM795 9V117H895V9H795ZM1349 -41H845V59H1349V-41ZM1399 117V9H1299V117H1399ZM845 167H1349V67H845V167Z" fill="#2A265B" mask="url(#path-27-inside-3)"/>
<path fill-rule="evenodd" clip-rule="evenodd" d="M933.161 35.88H1258.07L1288.25 60.84H1343.81V66.84H1289.5L1258.07 90H933.161L904.353 66.84H850.307V60.84H905.499L933.161 35.88Z" fill="#2A265B"/>
<path d="M961.615 53.0644H956.765V67.7975C956.765 69.9897 956.293 71.0857 955.349 71.0857C954.405 71.0857 953.933 69.6338 953.933 66.7299H949.684C949.684 69.5199 950.127 71.2708 951.014 71.9825C951.901 72.7227 953.174 73.0929 954.834 73.0929C956.493 73.0929 957.767 72.9505 958.654 72.6658C959.569 72.3811 960.227 71.9683 960.628 71.4274C961.286 70.4879 961.615 69.2779 961.615 67.7975V53.0644Z" fill="#FAA9B6"/>
<path d="M995.235 53.0644H992.402V66.2174C992.402 67.7832 992.002 68.9363 991.2 69.6765C990.399 70.3882 989.369 70.7441 988.11 70.7441C985.793 70.7441 984.634 69.2352 984.634 66.2174V53.0644H979.784V66.2174C979.784 70.801 982.459 73.0929 987.81 73.0929C989.612 73.0929 991.243 72.6373 992.703 71.7263C994.391 70.6729 995.235 68.8366 995.235 66.2174V53.0644Z" fill="#FAA9B6"/>
<path d="M1018.79 63.8687L1024.33 72.7085H1029.43L1022.91 62.2459L1028.79 53.0644H1025.96L1020.64 61.5199H1018.62V53.0644H1013.77V72.7085H1018.62V63.8687H1018.79Z" fill="#FAA9B6"/>
<path d="M1057.85 70.4025H1050.43V63.8687H1056.57V61.5626H1050.43V55.3704H1057.34V53.0644H1045.58V72.7085H1057.85V70.4025Z" fill="#FAA9B6"/>
<path d="M1088.83 58.1035C1088.83 56.7939 1088.33 55.6267 1087.32 54.6018C1086.35 53.5768 1084.63 53.0644 1082.17 53.0644H1075.22V72.7085H1082.95C1085.35 72.7085 1087.05 72.1961 1088.05 71.1711C1089.05 70.1462 1089.56 68.9078 1089.56 67.4558C1089.56 65.0074 1088.35 63.3847 1085.95 62.5875C1087.87 61.8758 1088.83 60.3811 1088.83 58.1035ZM1080.07 61.8188V54.8153H1081.7C1083.25 54.8153 1084.02 55.9825 1084.02 58.3171C1084.02 60.6516 1083.25 61.8188 1081.7 61.8188H1080.07ZM1080.07 70.9576V63.527H1082.3C1083.05 63.527 1083.63 63.9256 1084.06 64.7228C1084.52 65.4914 1084.75 66.4025 1084.75 67.4558C1084.75 69.7904 1083.93 70.9576 1082.3 70.9576H1080.07Z" fill="#FAA9B6"/>
<path d="M1117.92 70.4025H1111.74V53.0644H1106.89V72.7085H1117.92V70.4025Z" fill="#FAA9B6"/>
<path d="M1141.62 73.0929C1144.74 73.0929 1146.9 72.2103 1148.1 70.4452C1149.33 68.6516 1149.95 66.1462 1149.95 62.9292C1149.95 59.7121 1149.33 57.2067 1148.1 55.4131C1146.9 53.5911 1144.74 52.6801 1141.62 52.6801C1138.3 52.6801 1136.04 53.6907 1134.84 55.7121C1133.78 57.5057 1133.25 59.8971 1133.25 62.8865C1133.25 67.9541 1134.64 71.1142 1137.41 72.3669C1138.56 72.8509 1139.96 73.0929 1141.62 73.0929ZM1138.1 62.8865C1138.1 61.2067 1138.19 59.7975 1138.36 58.6587C1138.53 57.5199 1138.89 56.5662 1139.43 55.7975C1139.98 55.0003 1140.7 54.6018 1141.62 54.6018C1143.97 54.6018 1145.14 57.3633 1145.14 62.8865C1145.14 68.4096 1143.97 71.1711 1141.62 71.1711C1140.7 71.1711 1139.98 70.7868 1139.43 70.0181C1138.89 69.221 1138.53 68.253 1138.36 67.1142C1138.19 65.9754 1138.1 64.5662 1138.1 62.8865Z" fill="#FAA9B6"/>
<path d="M1181.89 58.4025C1181.69 56.495 1181.09 55.0715 1180.09 54.132C1179.09 53.164 1177.38 52.6801 1174.98 52.6801C1171.83 52.6801 1169.64 53.5057 1168.41 55.1569C1167.18 56.8082 1166.57 59.3847 1166.57 62.8865C1166.57 66.3882 1167.18 68.9647 1168.41 70.616C1169.64 72.2672 1171.69 73.0929 1174.55 73.0929C1177.41 73.0929 1179.31 72.5235 1180.26 71.3847C1181.2 70.2459 1181.76 68.495 1181.93 66.132L1178.03 65.9612C1178.03 67.6694 1177.8 68.9505 1177.34 69.8046C1176.91 70.6587 1176.07 71.0857 1174.81 71.0857C1173.58 71.0857 1172.71 70.4736 1172.19 69.2494C1171.68 68.0252 1171.42 65.9042 1171.42 62.8865C1171.42 59.8402 1171.68 57.7192 1172.19 56.5235C1172.71 55.2993 1173.55 54.6872 1174.72 54.6872C1175.92 54.6872 1176.74 55.043 1177.17 55.7548C1177.63 56.4665 1177.91 57.5484 1178.03 59.0003L1181.89 58.4025Z" fill="#FAA9B6"/>
<path d="M1203.85 63.8687L1209.39 72.7085H1214.49L1207.97 62.2459L1213.85 53.0644H1211.02L1205.7 61.5199H1203.68V53.0644H1198.83V72.7085H1203.68V63.8687H1203.85Z" fill="#FAA9B6"/>
<path d="M1229.74 58.7014C1229.74 60.495 1230.14 61.8615 1230.94 62.801C1231.74 63.7405 1233.06 64.4096 1234.89 64.8082L1236.3 65.1071C1237.93 65.4772 1239.02 65.8615 1239.57 66.2601C1240.11 66.6302 1240.38 67.2708 1240.38 68.1818C1240.38 69.0929 1240.07 69.8188 1239.44 70.3598C1238.84 70.9007 1237.99 71.1711 1236.9 71.1711C1234.64 71.1711 1233.4 69.5768 1233.17 66.3882L1229.31 66.9861C1229.54 69.0644 1230.27 70.6018 1231.5 71.5982C1232.73 72.5946 1234.53 73.0929 1236.9 73.0929C1239.31 73.0929 1241.14 72.5804 1242.4 71.5555C1243.66 70.5306 1244.29 69.1071 1244.29 67.285C1244.29 65.4345 1243.89 64.0537 1243.08 63.1427C1242.28 62.2032 1240.95 61.5199 1239.09 61.0929L1237.46 60.6658C1235.92 60.2957 1234.89 59.9114 1234.37 59.5128C1233.86 59.1142 1233.6 58.4736 1233.6 57.5911C1233.6 56.6801 1233.89 55.9541 1234.46 55.4131C1235.03 54.8722 1235.83 54.6018 1236.86 54.6018C1237.89 54.6018 1238.71 55.0146 1239.31 55.8402C1239.91 56.6658 1240.24 57.8331 1240.29 59.342L1244.16 58.7868C1243.9 56.7085 1243.17 55.1712 1241.97 54.1747C1240.8 53.1783 1239.09 52.6801 1236.86 52.6801C1232.11 52.6801 1229.74 54.6872 1229.74 58.7014Z" fill="#FAA9B6"/>
<mask id="path-31-inside-4" fill="white">
<path d="M1657 2779.69C1657 2834.92 1612.23 2879.69 1557 2879.69L636 2879.69C580.772 2879.69 536 2834.92 536 2779.69L536 2357.19C536 2301.96 580.772 2257.19 636 2257.19L1557 2257.19C1612.23 2257.19 1657 2301.96 1657 2357.19L1657 2779.69Z"/>
</mask>
<path d="M1657 2779.69C1657 2834.92 1612.23 2879.69 1557 2879.69L636 2879.69C580.772 2879.69 536 2834.92 536 2779.69L536 2357.19C536 2301.96 580.772 2257.19 636 2257.19L1557 2257.19C1612.23 2257.19 1657 2301.96 1657 2357.19L1657 2779.69Z" fill="#2A265B"/>
<path d="M1557 2257.19L1557 2237.19L1557 2257.19ZM536 2357.19L556 2357.19L536 2357.19ZM536 2779.69L516 2779.69L536 2779.69ZM1557 2859.69L636 2859.69L636 2899.69L1557 2899.69L1557 2859.69ZM556 2779.69L556 2357.19L516 2357.19L516 2779.69L556 2779.69ZM636 2277.19L1557 2277.19L1557 2237.19L636 2237.19L636 2277.19ZM1637 2357.19L1637 2779.69L1677 2779.69L1677 2357.19L1637 2357.19ZM1557 2277.19C1601.18 2277.19 1637 2313 1637 2357.19L1677 2357.19C1677 2290.91 1623.27 2237.19 1557 2237.19L1557 2277.19ZM556 2357.19C556 2313 591.817 2277.19 636 2277.19L636 2237.19C569.726 2237.19 516 2290.91 516 2357.19L556 2357.19ZM636 2859.69C591.817 2859.69 556 2823.87 556 2779.69L516 2779.69C516 2845.96 569.726 2899.69 636 2899.69L636 2859.69ZM1557 2899.69C1623.27 2899.69 1677 2845.96 1677 2779.69L1637 2779.69C1637 2823.87 1601.18 2859.69 1557 2859.69L1557 2899.69Z" fill="#FCCD93" mask="url(#path-31-inside-4)"/>
<mask id="mask2" mask-type="alpha" maskUnits="userSpaceOnUse" x="536" y="2257" width="1121" height="623">
<rect x="536" y="2257" width="1121" height="622.503" fill="#C4C4C4"/>
</mask>
<g mask="url(#mask2)">
<path d="M591.415 2286L1160.57 2877" stroke="#FCCD93" stroke-width="20" stroke-linecap="round" stroke-linejoin="round"/>
<path d="M377.86 2256.32L975.942 2877" stroke="#FCCD93" stroke-width="20" stroke-linecap="round" stroke-linejoin="round"/>
<path d="M192.317 2256.32L790.399 2877" stroke="#FCCD93" stroke-width="20" stroke-linecap="round" stroke-linejoin="round"/>
<path d="M47.0005 2249.69L645.082 2870.37" stroke="#FCCD93" stroke-width="20" stroke-linecap="round" stroke-linejoin="round"/>
<path d="M754.378 2256.32L1352.46 2877" stroke="#FCCD93" stroke-width="20" stroke-linecap="round" stroke-linejoin="round"/>
<path d="M945.356 2256.32L1543.44 2877" stroke="#FCCD93" stroke-width="20" stroke-linecap="round" stroke-linejoin="round"/>
<path d="M1136.33 2256.32L1643.72 2772.5" stroke="#FCCD93" stroke-width="20" stroke-linecap="round" stroke-linejoin="round"/>
<path d="M1830.25 2256.32L1232.16 2877" stroke="#FCCD93" stroke-width="20" stroke-linecap="round" stroke-linejoin="round"/>
<path d="M1608.51 2290L1043.97 2877" stroke="#FCCD93" stroke-width="20" stroke-linecap="round" stroke-linejoin="round"/>
<path d="M1292.65 2256.32L1890.73 2877" stroke="#FCCD93" stroke-width="20" stroke-linecap="round" stroke-linejoin="round"/>
<path d="M1483.63 2256.32L2081.71 2877" stroke="#FCCD93" stroke-width="20" stroke-linecap="round" stroke-linejoin="round"/>
<path d="M1647.76 2784L1568.11 2864" stroke="#FCCD93" stroke-width="20" stroke-linecap="round" stroke-linejoin="round"/>
<path d="M2011.03 2256.32L1412.95 2877" stroke="#FCCD93" stroke-width="20" stroke-linecap="round" stroke-linejoin="round"/>
<path d="M1448.29 2256.32L850.207 2877" stroke="#FCCD93" stroke-width="20" stroke-linecap="round" stroke-linejoin="round"/>
<path d="M1257.31 2256.32L659.23 2877" stroke="#FCCD93" stroke-width="20" stroke-linecap="round" stroke-linejoin="round"/>
<path d="M1076.3 2256L556.781 2801" stroke="#FCCD93" stroke-width="20" stroke-linecap="round" stroke-linejoin="round"/>
<path d="M884.869 2256.32L286.788 2877" stroke="#FCCD93" stroke-width="20" stroke-linecap="round" stroke-linejoin="round"/>
<path d="M693.891 2256.32L95.8095 2877" stroke="#FCCD93" stroke-width="20" stroke-linecap="round" stroke-linejoin="round"/>
<path d="M572 2486L923 2851" stroke="#2A265B" stroke-width="20"/>
<path d="M564 2670L737 2850" stroke="#2A265B" stroke-width="20"/>
<path d="M588 2310L1105 2848" stroke="#2A265B" stroke-width="20"/>
<path d="M753 2284L1292 2843" stroke="#2A265B" stroke-width="20"/>
<path d="M944 2284L1483 2843" stroke="#2A265B" stroke-width="20"/>
<path d="M1135 2284L1619.5 2776.5" stroke="#2A265B" stroke-width="20"/>
<path d="M1326 2320L1630 2635" stroke="#2A265B" stroke-width="20"/>
<path d="M1483 2284L1629 2436" stroke="#2A265B" stroke-width="20"/>
</g>
<mask id="path-60-inside-5" fill="white">
<path d="M1657 2779.69C1657 2834.92 1612.23 2879.69 1557 2879.69L636 2879.69C580.772 2879.69 536 2834.92 536 2779.69L536 2357.19C536 2301.96 580.772 2257.19 636 2257.19L1557 2257.19C1612.23 2257.19 1657 2301.96 1657 2357.19L1657 2779.69Z"/>
</mask>
<path d="M1657 2779.69C1657 2834.92 1612.23 2879.69 1557 2879.69L636 2879.69C580.772 2879.69 536 2834.92 536 2779.69L536 2357.19C536 2301.96 580.772 2257.19 636 2257.19L1557 2257.19C1612.23 2257.19 1657 2301.96 1657 2357.19L1657 2779.69Z" fill="url(#paint1_linear)"/>
<path d="M1557 2257.19L1557 2237.19L1557 2257.19ZM536 2357.19L556 2357.19L536 2357.19ZM536 2779.69L516 2779.69L536 2779.69ZM1557 2859.69L636 2859.69L636 2899.69L1557 2899.69L1557 2859.69ZM556 2779.69L556 2357.19L516 2357.19L516 2779.69L556 2779.69ZM636 2277.19L1557 2277.19L1557 2237.19L636 2237.19L636 2277.19ZM1637 2357.19L1637 2779.69L1677 2779.69L1677 2357.19L1637 2357.19ZM1557 2277.19C1601.18 2277.19 1637 2313 1637 2357.19L1677 2357.19C1677 2290.91 1623.27 2237.19 1557 2237.19L1557 2277.19ZM556 2357.19C556 2313 591.817 2277.19 636 2277.19L636 2237.19C569.726 2237.19 516 2290.91 516 2357.19L556 2357.19ZM636 2859.69C591.817 2859.69 556 2823.87 556 2779.69L516 2779.69C516 2845.96 569.726 2899.69 636 2899.69L636 2859.69ZM1557 2899.69C1623.27 2899.69 1677 2845.96 1677 2779.69L1637 2779.69C1637 2823.87 1601.18 2859.69 1557 2859.69L1557 2899.69Z" fill="#FCCD93" mask="url(#path-60-inside-5)"/>
<rect x="248" y="2771" width="230" height="69" rx="34.5" fill="#5D55C0" stroke="#2A265B" stroke-width="20"/>
<rect x="328" y="2700" width="69" height="69" rx="34.5" fill="#5D55C0" stroke="#2A265B" stroke-width="20"/>
<rect x="248" y="2845" width="230" height="69" rx="34.5" fill="#5D55C0" stroke="#2A265B" stroke-width="20"/>
<rect x="248" y="2920" width="230" height="69" rx="34.5" fill="#5D55C0" stroke="#2A265B" stroke-width="20"/>
<rect x="1715" y="2771" width="230" height="69" rx="34.5" fill="#5D55C0" stroke="#2A265B" stroke-width="20"/>
<rect x="1795" y="2700" width="69" height="69" rx="34.5" fill="#5D55C0" stroke="#2A265B" stroke-width="20"/>
<rect x="1715" y="2845" width="230" height="69" rx="34.5" fill="#5D55C0" stroke="#2A265B" stroke-width="20"/>
<rect x="1715" y="2920" width="230" height="69" rx="34.5" fill="#5D55C0" stroke="#2A265B" stroke-width="20"/>
</g>
<defs>
<filter id="filter0_b" x="443" y="172" width="1307" height="2830" filterUnits="userSpaceOnUse" color-interpolation-filters="sRGB">
<feFlood flood-opacity="0" result="BackgroundImageFix"/>
<feGaussianBlur in="BackgroundImage" stdDeviation="2"/>
<feComposite in2="SourceAlpha" operator="in" result="effect1_backgroundBlur"/>
<feBlend mode="normal" in="SourceGraphic" in2="effect1_backgroundBlur" result="shape"/>
</filter>
<linearGradient id="paint0_linear" x1="573.5" y1="1579" x2="1617" y2="3355.5" gradientUnits="userSpaceOnUse">
<stop offset="0.00417328" stop-color="#FAA8B6"/>
<stop offset="1" stop-color="#FAA8C9" stop-opacity="0"/>
</linearGradient>
<linearGradient id="paint1_linear" x1="1262.5" y1="3359" x2="891.5" y2="2095.5" gradientUnits="userSpaceOnUse">
<stop stop-color="#2A265B"/>
<stop offset="0.715981" stop-color="#2A265B" stop-opacity="0"/>
</linearGradient>
<clipPath id="clip0">
<rect width="2193" height="2998" fill="white"/>
</clipPath>
</defs>
</svg>
