<svg width="4400" height="943" viewBox="0 0 4400 943" fill="none" xmlns="http://www.w3.org/2000/svg">
<path d="M185.432 386.724H113.311V606.138C113.311 638.785 106.29 655.109 92.2485 655.109C78.2071 655.109 71.1864 633.485 71.1864 590.239H8C8 631.789 14.5952 657.865 27.7856 668.464C40.976 679.488 59.9107 685 84.5895 685C109.268 685 128.203 682.88 141.393 678.64C155.009 674.4 164.796 668.252 170.753 660.197C180.539 646.205 185.432 628.185 185.432 606.138V386.724Z" fill="#FAA8C9"/>
<path d="M685.386 386.724H643.262V582.607C643.262 605.926 637.305 623.098 625.391 634.121C613.477 644.721 598.16 650.021 579.438 650.021C544.972 650.021 527.74 627.549 527.74 582.607V386.724H455.618V582.607C455.618 650.869 495.402 685 574.97 685C601.776 685 626.03 678.216 647.73 664.649C672.834 648.961 685.386 621.614 685.386 582.607V386.724Z" fill="#FAA8C9"/>
<path d="M1035.69 547.628L1118.02 679.276H1193.97L1096.96 523.46L1184.4 386.724H1142.27L1063.13 512.649H1033.13V386.724H961.012V679.276H1033.13V547.628H1035.69Z" fill="#FAA8C9"/>
<path d="M1616.58 644.933H1506.16V547.628H1597.43V513.284H1506.16V421.067H1608.92V386.724H1434.04V679.276H1616.58V644.933Z" fill="#FAA8C9"/>
<path d="M2077.17 461.77C2077.17 442.266 2069.72 424.883 2054.83 409.619C2040.36 394.356 2014.83 386.724 1978.24 386.724H1874.84V679.276H1989.73C2025.47 679.276 2050.78 671.644 2065.68 656.381C2080.57 641.117 2088.02 622.674 2088.02 601.05C2088.02 564.587 2070.15 540.42 2034.4 528.548C2062.91 517.948 2077.17 495.689 2077.17 461.77ZM1946.96 517.1V412.799H1971.22C1994.19 412.799 2005.68 430.183 2005.68 464.95C2005.68 499.717 1994.19 517.1 1971.22 517.1H1946.96ZM1946.96 653.201V542.54H1980.15C1991.22 542.54 1999.94 548.476 2006.32 560.347C2013.13 571.795 2016.53 585.363 2016.53 601.05C2016.53 635.817 2004.41 653.201 1980.15 653.201H1946.96Z" fill="#FAA8C9"/>
<path d="M2509.8 644.933H2417.89V386.724H2345.77V679.276H2509.8V644.933Z" fill="#FAA8C9"/>
<path d="M2862.27 685C2908.65 685 2940.77 671.856 2958.64 645.569C2976.94 618.858 2986.09 581.547 2986.09 533.636C2986.09 485.725 2976.94 448.414 2958.64 421.703C2940.77 394.568 2908.65 381 2862.27 381C2812.91 381 2779.3 396.052 2761.43 426.155C2745.68 452.866 2737.81 488.481 2737.81 533C2737.81 608.47 2758.45 655.533 2799.72 674.188C2816.74 681.396 2837.59 685 2862.27 685ZM2809.93 533C2809.93 507.985 2811.21 486.997 2813.76 470.038C2816.32 453.078 2821.63 438.874 2829.72 427.427C2837.8 415.555 2848.65 409.619 2862.27 409.619C2897.16 409.619 2914.61 450.746 2914.61 533C2914.61 615.254 2897.16 656.381 2862.27 656.381C2848.65 656.381 2837.8 650.657 2829.72 639.209C2821.63 627.338 2816.32 612.922 2813.76 595.962C2811.21 579.003 2809.93 558.015 2809.93 533Z" fill="#FAA8C9"/>
<path d="M3461.11 466.222C3458.13 437.815 3449.2 416.615 3434.31 402.623C3419.41 388.208 3394.1 381 3358.35 381C3311.55 381 3279 393.296 3260.7 417.887C3242.41 442.478 3233.26 480.849 3233.26 533C3233.26 585.151 3242.41 623.522 3260.7 648.113C3279 672.704 3309.42 685 3351.97 685C3394.52 685 3422.82 676.52 3436.86 659.561C3450.9 642.601 3459.2 616.526 3461.75 581.335L3403.67 578.791C3403.67 604.23 3400.27 623.31 3393.46 636.029C3387.07 648.749 3374.52 655.109 3355.8 655.109C3337.5 655.109 3324.53 645.993 3316.87 627.761C3309.21 609.53 3305.38 577.943 3305.38 533C3305.38 487.633 3309.21 456.046 3316.87 438.239C3324.53 420.007 3337.08 410.891 3354.52 410.891C3372.4 410.891 3384.52 416.191 3390.9 426.791C3397.71 437.391 3401.97 453.502 3403.67 475.126L3461.11 466.222Z" fill="#FAA8C9"/>
<path d="M3787.68 547.628L3870.02 679.276H3945.97L3848.96 523.46L3936.4 386.724H3894.27L3815.13 512.649H3785.13V386.724H3713.01V679.276H3785.13V547.628H3787.68Z" fill="#FAA8C9"/>
<path d="M4172.63 470.674C4172.63 497.385 4178.59 517.736 4190.51 531.728C4202.42 545.72 4221.99 555.683 4249.22 561.619L4270.29 566.071C4294.54 571.583 4310.71 577.307 4318.79 583.243C4326.88 588.755 4330.92 598.294 4330.92 611.862C4330.92 625.43 4326.24 636.241 4316.88 644.297C4307.94 652.353 4295.39 656.381 4279.22 656.381C4245.61 656.381 4227.1 632.637 4223.69 585.151L4166.25 594.054C4169.66 625.006 4180.51 647.901 4198.8 662.741C4217.1 677.58 4243.91 685 4279.22 685C4314.96 685 4342.2 677.368 4360.92 662.105C4379.64 646.841 4389 625.642 4389 598.506C4389 570.947 4383.04 550.384 4371.13 536.816C4359.22 522.824 4339.43 512.649 4311.77 506.289L4287.52 499.929C4264.54 494.417 4249.22 488.693 4241.57 482.757C4233.91 476.821 4230.08 467.282 4230.08 454.138C4230.08 440.57 4234.33 429.759 4242.84 421.703C4251.35 413.647 4263.27 409.619 4278.58 409.619C4293.9 409.619 4306.03 415.767 4314.96 428.063C4323.9 440.358 4328.79 457.742 4329.64 480.213L4387.09 471.946C4383.26 440.994 4372.41 418.099 4354.53 403.259C4337.09 388.42 4311.77 381 4278.58 381C4207.95 381 4172.63 410.891 4172.63 470.674Z" fill="#FAA8C9"/>
</svg>
