<svg width="4400" height="943" viewBox="0 0 4400 943" fill="none" xmlns="http://www.w3.org/2000/svg">
<path d="M4372.36 52.3889V27.3889H4347.36H52.6442H27.6442V52.3889V890.611V915.611H52.6442H4347.36H4372.36V890.611V52.3889ZM25 918V25H4375V918H25Z" fill="#484848" stroke="#2A265B" stroke-width="50"/>
<path fill-rule="evenodd" clip-rule="evenodd" d="M769.643 234.701H3606.11L3869.65 452.639H4354.71V505.028H3880.56L3606.11 707.249H769.643L518.145 505.028H46.3125V452.639H528.147L769.643 234.701Z" fill="#2A265B"/>
<path d="M1018.07 384.748H975.73V513.39C975.73 532.531 971.609 542.101 963.366 542.101C955.122 542.101 951.001 529.424 951.001 504.068H913.906C913.906 528.429 917.778 543.717 925.522 549.932C933.265 556.395 944.381 559.626 958.869 559.626C973.357 559.626 984.473 558.383 992.217 555.898C1000.21 553.412 1005.96 549.807 1009.45 545.084C1015.2 536.881 1018.07 526.316 1018.07 513.39V384.748Z" fill="#FAA9B6"/>
<path d="M1311.58 384.748H1286.85V499.594C1286.85 513.266 1283.35 523.333 1276.35 529.796C1269.36 536.011 1260.37 539.118 1249.38 539.118C1229.14 539.118 1219.03 525.943 1219.03 499.594V384.748H1176.69V499.594C1176.69 539.615 1200.04 559.626 1246.75 559.626C1262.49 559.626 1276.73 555.649 1289.47 547.694C1304.21 538.497 1311.58 522.463 1311.58 499.594V384.748Z" fill="#FAA9B6"/>
<path d="M1517.22 479.085L1565.56 556.27H1610.15L1553.2 464.916L1604.53 384.748H1579.8L1533.34 458.577H1515.73V384.748H1473.39V556.27H1515.73V479.085H1517.22Z" fill="#FAA9B6"/>
<path d="M1858.25 536.135H1793.42V479.085H1847V458.95H1793.42V404.883H1853.75V384.748H1751.08V556.27H1858.25V536.135Z" fill="#FAA9B6"/>
<path d="M2128.64 428.747C2128.64 417.313 2124.27 407.121 2115.53 398.172C2107.03 389.223 2092.05 384.748 2070.56 384.748H2009.86V556.27H2077.31C2098.29 556.27 2113.15 551.796 2121.9 542.847C2130.64 533.898 2135.01 523.085 2135.01 510.407C2135.01 489.029 2124.52 474.86 2103.54 467.899C2120.27 461.685 2128.64 448.634 2128.64 428.747ZM2052.2 461.187V400.036H2066.44C2079.93 400.036 2086.67 410.228 2086.67 430.612C2086.67 450.996 2079.93 461.187 2066.44 461.187H2052.2ZM2052.2 540.983V476.102H2071.69C2078.18 476.102 2083.3 479.583 2087.05 486.543C2091.05 493.255 2093.04 501.209 2093.04 510.407C2093.04 530.791 2085.93 540.983 2071.69 540.983H2052.2Z" fill="#FAA9B6"/>
<path d="M2382.62 536.135H2328.67V384.748H2286.33V556.27H2382.62V536.135Z" fill="#FAA9B6"/>
<path d="M2589.55 559.626C2616.77 559.626 2635.63 551.92 2646.13 536.508C2656.87 520.847 2662.24 498.972 2662.24 470.882C2662.24 442.792 2656.87 420.917 2646.13 405.256C2635.63 389.347 2616.77 381.392 2589.55 381.392C2560.57 381.392 2540.84 390.217 2530.35 407.866C2521.1 423.527 2516.48 444.408 2516.48 470.509C2516.48 514.757 2528.6 542.35 2552.83 553.287C2562.82 557.513 2575.06 559.626 2589.55 559.626ZM2558.82 470.509C2558.82 455.843 2559.57 443.538 2561.07 433.595C2562.57 423.651 2565.69 415.324 2570.44 408.612C2575.18 401.652 2581.55 398.172 2589.55 398.172C2610.03 398.172 2620.27 422.284 2620.27 470.509C2620.27 518.734 2610.03 542.847 2589.55 542.847C2581.55 542.847 2575.18 539.491 2570.44 532.779C2565.69 525.819 2562.57 517.367 2561.07 507.424C2559.57 497.481 2558.82 485.176 2558.82 470.509Z" fill="#FAA9B6"/>
<path d="M2941.11 431.358C2939.36 414.702 2934.11 402.273 2925.37 394.07C2916.63 385.618 2901.76 381.392 2880.78 381.392C2853.3 381.392 2834.19 388.601 2823.45 403.019C2812.71 417.437 2807.34 439.934 2807.34 470.509C2807.34 501.085 2812.71 523.582 2823.45 538C2834.19 552.417 2852.05 559.626 2877.03 559.626C2902.01 559.626 2918.62 554.655 2926.87 544.711C2935.11 534.768 2939.98 519.48 2941.48 498.848L2907.38 497.356C2907.38 512.271 2905.39 523.458 2901.39 530.915C2897.64 538.373 2890.27 542.101 2879.28 542.101C2868.54 542.101 2860.92 536.757 2856.43 526.068C2851.93 515.379 2849.68 496.859 2849.68 470.509C2849.68 443.911 2851.93 425.392 2856.43 414.951C2860.92 404.262 2868.29 398.917 2878.53 398.917C2889.02 398.917 2896.14 402.025 2899.89 408.239C2903.89 414.454 2906.38 423.9 2907.38 436.578L2941.11 431.358Z" fill="#FAA9B6"/>
<path d="M3132.83 479.085L3181.16 556.27H3225.75L3168.8 464.916L3220.13 384.748H3195.4L3148.94 458.577H3131.33V384.748H3088.99V556.27H3131.33V479.085H3132.83Z" fill="#FAA9B6"/>
<path d="M3358.82 433.968C3358.82 449.628 3362.31 461.56 3369.31 469.764C3376.3 477.967 3387.79 483.809 3403.78 487.289L3416.14 489.899C3430.38 493.13 3439.87 496.486 3444.62 499.966C3449.37 503.198 3451.74 508.791 3451.74 516.746C3451.74 524.7 3448.99 531.039 3443.5 535.762C3438.25 540.485 3430.88 542.847 3421.39 542.847C3401.66 542.847 3390.79 528.926 3388.79 501.085L3355.07 506.305C3357.07 524.452 3363.44 537.875 3374.18 546.576C3384.92 555.276 3400.66 559.626 3421.39 559.626C3442.37 559.626 3458.36 555.152 3469.35 546.203C3480.34 537.254 3485.84 524.825 3485.84 508.915C3485.84 492.758 3482.34 480.701 3475.34 472.747C3468.35 464.543 3456.74 458.577 3440.5 454.849L3426.26 451.12C3412.77 447.888 3403.78 444.532 3399.28 441.052C3394.79 437.572 3392.54 431.979 3392.54 424.273C3392.54 416.318 3395.04 409.979 3400.03 405.256C3405.03 400.533 3412.02 398.172 3421.01 398.172C3430.01 398.172 3437.13 401.776 3442.37 408.985C3447.62 416.194 3450.49 426.386 3450.99 439.561L3484.71 434.713C3482.46 416.567 3476.09 403.143 3465.6 394.443C3455.36 385.743 3440.5 381.392 3421.01 381.392C3379.55 381.392 3358.82 398.917 3358.82 433.968Z" fill="#FAA9B6"/>
</svg>
