<svg width="2193" height="769" viewBox="0 0 2193 769" fill="none" xmlns="http://www.w3.org/2000/svg">
<g clip-path="url(#clip0)">
<path fill-rule="evenodd" clip-rule="evenodd" d="M1917.86 70C1917.95 64.8448 1918 59.678 1918 54.5C1918 -399.202 1550.2 -767 1096.5 -767C642.798 -767 275 -399.202 275 54.5C275 59.678 275.048 64.8448 275.143 70H275V2231H1918V70H1917.86Z" fill="#2A265B"/>
<path fill-rule="evenodd" clip-rule="evenodd" d="M1887.58 97.3906C1887.67 92.3009 1887.72 87.1997 1887.72 82.0875C1887.72 -365.864 1533.41 -729 1096.36 -729C659.303 -729 305 -365.864 305 82.0875C305 87.1997 305.046 92.3009 305.138 97.3906H305V2231H1887.72V97.3906H1887.58Z" fill="url(#paint0_linear)"/>
<mask id="path-3-inside-1" fill="white">
<path fill-rule="evenodd" clip-rule="evenodd" d="M1789.88 76.2469C1789.96 71.9492 1790 67.6418 1790 63.3253C1790 -320.14 1479.51 -631 1096.5 -631C713.491 -631 403 -320.14 403 63.3253C403 67.6418 403.039 71.9492 403.118 76.2469H403V2232H1790V76.2469H1789.88Z"/>
</mask>
<path fill-rule="evenodd" clip-rule="evenodd" d="M1789.88 76.2469C1789.96 71.9492 1790 67.6418 1790 63.3253C1790 -320.14 1479.51 -631 1096.5 -631C713.491 -631 403 -320.14 403 63.3253C403 67.6418 403.039 71.9492 403.118 76.2469H403V2232H1790V76.2469H1789.88Z" fill="#7FDCC4"/>
<path d="M1789.88 76.2469L1769.89 75.8823L1769.51 96.2469H1789.88V76.2469ZM403.118 76.2469V96.2469H423.486L423.114 75.8824L403.118 76.2469ZM403 76.2469V56.2469H383V76.2469H403ZM403 2232H383V2252H403V2232ZM1790 2232V2252H1810V2232H1790ZM1790 76.2469H1810V56.2469H1790V76.2469ZM1770 63.3253C1770 67.5204 1769.96 71.7062 1769.89 75.8823L1809.88 76.6116C1809.96 72.1921 1810 67.7632 1810 63.3253H1770ZM1096.5 -611C1468.44 -611 1770 -309.117 1770 63.3253H1810C1810 -331.163 1490.58 -651 1096.5 -651V-611ZM423 63.3253C423 -309.117 724.559 -611 1096.5 -611V-651C702.422 -651 383 -331.163 383 63.3253H423ZM423.114 75.8824C423.038 71.7061 423 67.5203 423 63.3253H383C383 67.7633 383.04 72.1922 383.121 76.6115L423.114 75.8824ZM403 96.2469H403.118V56.2469H403V96.2469ZM423 2232V76.2469H383V2232H423ZM1790 2212H403V2252H1790V2212ZM1770 76.2469V2232H1810V76.2469H1770ZM1789.88 96.2469H1790V56.2469H1789.88V96.2469Z" fill="#2A265B" mask="url(#path-3-inside-1)"/>
<g filter="url(#filter0_b)">
<path fill-rule="evenodd" clip-rule="evenodd" d="M1745.69 71C1745.76 66.9904 1745.8 62.9718 1745.8 58.9447C1745.8 -300.01 1455.05 -591 1096.4 -591C737.746 -591 447 -300.01 447 58.9447C447 62.9718 447.037 66.9904 447.109 71H447V2231H1746V71H1745.69Z" fill="#2A265B"/>
</g>
<mask id="path-6-inside-2" fill="white">
<path fill-rule="evenodd" clip-rule="evenodd" d="M1657 85.5V1217C1657 1272.23 1612.23 1317 1557 1317H636C580.771 1317 536 1272.23 536 1217V85.5V78.0247C536 78.0111 536.011 78 536.025 78V78C536.038 78 536.049 77.989 536.049 77.9754C540.077 -228.112 789.456 -475 1096.5 -475C1403.54 -475 1652.92 -228.112 1656.95 77.9754C1656.95 77.989 1656.96 78 1656.98 78V78C1656.99 78 1657 78.0111 1657 78.0248V85.5Z"/>
</mask>
<path fill-rule="evenodd" clip-rule="evenodd" d="M1657 85.5V1217C1657 1272.23 1612.23 1317 1557 1317H636C580.771 1317 536 1272.23 536 1217V85.5V78.0247C536 78.0111 536.011 78 536.025 78V78C536.038 78 536.049 77.989 536.049 77.9754C540.077 -228.112 789.456 -475 1096.5 -475C1403.54 -475 1652.92 -228.112 1656.95 77.9754C1656.95 77.989 1656.96 78 1656.98 78V78C1656.99 78 1657 78.0111 1657 78.0248V85.5Z" fill="#2A265B"/>
<path d="M536.049 77.9754L556.048 78.2386L536.049 77.9754ZM1656.95 77.9754L1636.95 78.2385L1656.95 77.9754ZM1637 85.5V1217H1677V85.5H1637ZM1557 1297H636V1337H1557V1297ZM556 1217V85.5H516V1217H556ZM556 85.5V78.0247H516V85.5H556ZM556.048 78.2386C559.931 -216.921 800.414 -455 1096.5 -455V-495C778.499 -495 520.222 -239.303 516.051 77.7123L556.048 78.2386ZM1096.5 -455C1392.59 -455 1633.07 -216.921 1636.95 78.2385L1676.95 77.7123C1672.78 -239.303 1414.5 -495 1096.5 -495V-455ZM1637 78.0248V85.5H1677V78.0248H1637ZM1656.98 98C1645.94 98 1637 89.0568 1637 78.0248H1677C1677 66.9654 1668.03 58 1656.98 58V98ZM536.025 98C547.125 98 555.905 89.0499 556.048 78.2386L516.051 77.7123C516.193 66.928 524.951 58 536.025 58V98ZM556 78.0247C556 89.0566 547.057 98 536.025 98V58C524.965 58 516 66.9655 516 78.0247H556ZM1636.95 78.2385C1637.09 89.0453 1645.87 98 1656.98 98V58C1668.05 58 1676.81 66.9326 1676.95 77.7123L1636.95 78.2385ZM636 1297C591.817 1297 556 1261.18 556 1217H516C516 1283.27 569.726 1337 636 1337V1297ZM1637 1217C1637 1261.18 1601.18 1297 1557 1297V1337C1623.27 1337 1677 1283.27 1677 1217H1637Z" fill="#FCCD93" mask="url(#path-6-inside-2)"/>
<rect x="248" y="458" width="230" height="69" rx="34.5" fill="#7FDCC4" stroke="#2A265B" stroke-width="20"/>
<rect x="248" y="532" width="230" height="69" rx="34.5" fill="#7FDCC4" stroke="#2A265B" stroke-width="20"/>
<rect x="248" y="607" width="230" height="69" rx="34.5" fill="#7FDCC4" stroke="#2A265B" stroke-width="20"/>
<rect x="1715" y="458" width="230" height="69" rx="34.5" fill="#7FDCC4" stroke="#2A265B" stroke-width="20"/>
<rect x="1715" y="532" width="230" height="69" rx="34.5" fill="#7FDCC4" stroke="#2A265B" stroke-width="20"/>
<rect x="1715" y="607" width="230" height="69" rx="34.5" fill="#7FDCC4" stroke="#2A265B" stroke-width="20"/>
<mask id="mask0" mask-type="alpha" maskUnits="userSpaceOnUse" x="334" y="-687" width="1525" height="772">
<path fill-rule="evenodd" clip-rule="evenodd" d="M1096.5 -667C686.422 -667 354 -334.789 354 75C354 80.5228 349.523 85 344 85C338.477 85 334 80.5228 334 75C334 -345.847 675.389 -687 1096.5 -687C1517.61 -687 1859 -345.847 1859 75C1859 80.5228 1854.52 85 1849 85C1843.48 85 1839 80.5228 1839 75C1839 -334.789 1506.58 -667 1096.5 -667Z" fill="#2A265B"/>
</mask>
<g mask="url(#mask0)">
<rect x="263" y="-306" width="1666" height="353" fill="#2A265B"/>
</g>
<mask id="mask1" mask-type="alpha" maskUnits="userSpaceOnUse" x="488" y="-538" width="1217" height="599">
<path fill-rule="evenodd" clip-rule="evenodd" d="M1096.5 -522.482C769.245 -522.482 503.961 -264.717 503.961 53.2409C503.961 57.5261 500.388 61 495.98 61C491.573 61 488 57.5261 488 53.2409C488 -273.297 760.44 -538 1096.5 -538C1432.56 -538 1705 -273.297 1705 53.2409C1705 57.5261 1701.43 61 1697.02 61C1692.61 61 1689.04 57.5261 1689.04 53.2409C1689.04 -264.717 1423.76 -522.482 1096.5 -522.482Z" fill="#5D55C0"/>
</mask>
<g mask="url(#mask1)">
<rect x="431" y="-136" width="1330" height="197" fill="#5D55C0"/>
</g>
<rect x="363" y="751" width="20" height="185" rx="10" fill="#2A265B"/>
<rect x="1849" y="751" width="20" height="185" rx="10" fill="#2A265B"/>
</g>
<defs>
<filter id="filter0_b" x="443" y="-595" width="1307" height="2830" filterUnits="userSpaceOnUse" color-interpolation-filters="sRGB">
<feFlood flood-opacity="0" result="BackgroundImageFix"/>
<feGaussianBlur in="BackgroundImage" stdDeviation="2"/>
<feComposite in2="SourceAlpha" operator="in" result="effect1_backgroundBlur"/>
<feBlend mode="normal" in="SourceGraphic" in2="effect1_backgroundBlur" result="shape"/>
</filter>
<linearGradient id="paint0_linear" x1="573.5" y1="812" x2="1617" y2="2588.5" gradientUnits="userSpaceOnUse">
<stop offset="0.00417328" stop-color="#FAA8B6"/>
<stop offset="1" stop-color="#FAA8C9" stop-opacity="0"/>
</linearGradient>
<clipPath id="clip0">
<rect width="2193" height="769" fill="white"/>
</clipPath>
</defs>
</svg>
