<svg width="2193" height="852" viewBox="0 0 2193 852" fill="none" xmlns="http://www.w3.org/2000/svg">
<g clip-path="url(#clip0)">
<path fill-rule="evenodd" clip-rule="evenodd" d="M1917.86 -1546C1917.95 -1551.16 1918 -1556.32 1918 -1561.5C1918 -2015.2 1550.2 -2383 1096.5 -2383C642.798 -2383 275 -2015.2 275 -1561.5C275 -1556.32 275.048 -1551.16 275.143 -1546H275V615H1918V-1546H1917.86Z" fill="#2A265B"/>
<path fill-rule="evenodd" clip-rule="evenodd" d="M1887.58 -1518.61C1887.67 -1523.7 1887.72 -1528.8 1887.72 -1533.91C1887.72 -1981.86 1533.41 -2345 1096.36 -2345C659.303 -2345 305 -1981.86 305 -1533.91C305 -1528.8 305.046 -1523.7 305.138 -1518.61H305V615H1887.72V-1518.61H1887.58Z" fill="url(#paint0_linear)"/>
<mask id="path-3-inside-1" fill="white">
<path fill-rule="evenodd" clip-rule="evenodd" d="M1789.88 -1539.75C1789.96 -1544.05 1790 -1548.36 1790 -1552.67C1790 -1936.14 1479.51 -2247 1096.5 -2247C713.491 -2247 403 -1936.14 403 -1552.67C403 -1548.36 403.039 -1544.05 403.118 -1539.75H403V616H1790V-1539.75H1789.88Z"/>
</mask>
<path fill-rule="evenodd" clip-rule="evenodd" d="M1789.88 -1539.75C1789.96 -1544.05 1790 -1548.36 1790 -1552.67C1790 -1936.14 1479.51 -2247 1096.5 -2247C713.491 -2247 403 -1936.14 403 -1552.67C403 -1548.36 403.039 -1544.05 403.118 -1539.75H403V616H1790V-1539.75H1789.88Z" fill="#7FDCC4"/>
<path d="M1789.88 -1539.75L1769.89 -1540.12L1769.51 -1519.75H1789.88V-1539.75ZM403.118 -1539.75V-1519.75H423.486L423.114 -1540.12L403.118 -1539.75ZM403 -1539.75V-1559.75H383V-1539.75H403ZM403 616H383V636H403V616ZM1790 616V636H1810V616H1790ZM1790 -1539.75H1810V-1559.75H1790V-1539.75ZM1770 -1552.67C1770 -1548.48 1769.96 -1544.29 1769.89 -1540.12L1809.88 -1539.39C1809.96 -1543.81 1810 -1548.24 1810 -1552.67H1770ZM1096.5 -2227C1468.44 -2227 1770 -1925.12 1770 -1552.67H1810C1810 -1947.16 1490.58 -2267 1096.5 -2267V-2227ZM423 -1552.67C423 -1925.12 724.559 -2227 1096.5 -2227V-2267C702.422 -2267 383 -1947.16 383 -1552.67H423ZM423.114 -1540.12C423.038 -1544.29 423 -1548.48 423 -1552.67H383C383 -1548.24 383.04 -1543.81 383.121 -1539.39L423.114 -1540.12ZM403 -1519.75H403.118V-1559.75H403V-1519.75ZM423 616V-1539.75H383V616H423ZM1790 596H403V636H1790V596ZM1770 -1539.75V616H1810V-1539.75H1770ZM1789.88 -1519.75H1790V-1559.75H1789.88V-1519.75Z" fill="#2A265B" mask="url(#path-3-inside-1)"/>
<g filter="url(#filter0_b)">
<path fill-rule="evenodd" clip-rule="evenodd" d="M1745.69 -1545C1745.76 -1549.01 1745.8 -1553.03 1745.8 -1557.06C1745.8 -1916.01 1455.05 -2207 1096.4 -2207C737.746 -2207 447 -1916.01 447 -1557.06C447 -1553.03 447.037 -1549.01 447.109 -1545H447V615H1746V-1545H1745.69Z" fill="#2A265B"/>
</g>
<rect x="363" y="-369" width="20" height="732" rx="10" fill="#2A265B"/>
<rect x="1849" y="-369" width="20" height="732" rx="10" fill="#2A265B"/>
<mask id="path-8-inside-2" fill="white">
<path d="M1657 396.69C1657 451.919 1612.23 496.69 1557 496.69L636 496.69C580.772 496.69 536 451.919 536 396.69L536 -25.8124C536 -81.0408 580.772 -125.813 636 -125.813L1557 -125.812C1612.23 -125.812 1657 -81.0409 1657 -25.8124L1657 396.69Z"/>
</mask>
<path d="M1657 396.69C1657 451.919 1612.23 496.69 1557 496.69L636 496.69C580.772 496.69 536 451.919 536 396.69L536 -25.8124C536 -81.0408 580.772 -125.813 636 -125.813L1557 -125.812C1612.23 -125.812 1657 -81.0409 1657 -25.8124L1657 396.69Z" fill="#2A265B"/>
<path d="M1557 476.69L636 476.69L636 516.69L1557 516.69L1557 476.69ZM556 396.69L556 -25.8124L516 -25.8124L516 396.69L556 396.69ZM636 -105.813L1557 -105.812L1557 -145.812L636 -145.813L636 -105.813ZM1637 -25.8124L1637 396.69L1677 396.69L1677 -25.8124L1637 -25.8124ZM1557 -105.812C1601.18 -105.812 1637 -69.9952 1637 -25.8124L1677 -25.8124C1677 -92.0866 1623.27 -145.812 1557 -145.812L1557 -105.812ZM556 -25.8124C556 -69.9952 591.817 -105.813 636 -105.813L636 -145.813C569.726 -145.813 516 -92.0865 516 -25.8124L556 -25.8124ZM636 476.69C591.817 476.69 556 440.873 556 396.69L516 396.69C516 462.965 569.726 516.69 636 516.69L636 476.69ZM1557 516.69C1623.27 516.69 1677 462.964 1677 396.69L1637 396.69C1637 440.873 1601.18 476.69 1557 476.69L1557 516.69Z" fill="#FCCD93" mask="url(#path-8-inside-2)"/>
<mask id="mask0" mask-type="alpha" maskUnits="userSpaceOnUse" x="536" y="-126" width="1121" height="623">
<rect x="536" y="-126" width="1121" height="622.503" fill="#C4C4C4"/>
</mask>
<g mask="url(#mask0)">
<path d="M591.415 -97L1160.57 494" stroke="#FCCD93" stroke-width="20" stroke-linecap="round" stroke-linejoin="round"/>
<path d="M377.86 -126.679L975.942 494.002" stroke="#FCCD93" stroke-width="20" stroke-linecap="round" stroke-linejoin="round"/>
<path d="M192.318 -126.679L790.399 494.002" stroke="#FCCD93" stroke-width="20" stroke-linecap="round" stroke-linejoin="round"/>
<path d="M47.0005 -133.313L645.082 487.367" stroke="#FCCD93" stroke-width="20" stroke-linecap="round" stroke-linejoin="round"/>
<path d="M754.378 -126.679L1352.46 494.002" stroke="#FCCD93" stroke-width="20" stroke-linecap="round" stroke-linejoin="round"/>
<path d="M945.356 -126.679L1543.44 494.002" stroke="#FCCD93" stroke-width="20" stroke-linecap="round" stroke-linejoin="round"/>
<path d="M1136.33 -126.679L1643.72 389.5" stroke="#FCCD93" stroke-width="20" stroke-linecap="round" stroke-linejoin="round"/>
<path d="M1830.25 -126.679L1232.16 494.002" stroke="#FCCD93" stroke-width="20" stroke-linecap="round" stroke-linejoin="round"/>
<path d="M1608.51 -93L1043.97 494" stroke="#FCCD93" stroke-width="20" stroke-linecap="round" stroke-linejoin="round"/>
<path d="M1292.65 -126.679L1890.73 494.002" stroke="#FCCD93" stroke-width="20" stroke-linecap="round" stroke-linejoin="round"/>
<path d="M1483.63 -126.679L2081.71 494.002" stroke="#FCCD93" stroke-width="20" stroke-linecap="round" stroke-linejoin="round"/>
<path d="M1647.76 401L1568.11 481" stroke="#FCCD93" stroke-width="20" stroke-linecap="round" stroke-linejoin="round"/>
<path d="M2011.03 -126.679L1412.95 494.002" stroke="#FCCD93" stroke-width="20" stroke-linecap="round" stroke-linejoin="round"/>
<path d="M1448.29 -126.679L850.207 494.002" stroke="#FCCD93" stroke-width="20" stroke-linecap="round" stroke-linejoin="round"/>
<path d="M1257.31 -126.679L659.23 494.002" stroke="#FCCD93" stroke-width="20" stroke-linecap="round" stroke-linejoin="round"/>
<path d="M1076.3 -127L556.781 418" stroke="#FCCD93" stroke-width="20" stroke-linecap="round" stroke-linejoin="round"/>
<path d="M884.869 -126.679L286.788 494.002" stroke="#FCCD93" stroke-width="20" stroke-linecap="round" stroke-linejoin="round"/>
<path d="M693.891 -126.679L95.8097 494.002" stroke="#FCCD93" stroke-width="20" stroke-linecap="round" stroke-linejoin="round"/>
<path d="M572 103L923 468" stroke="#2A265B" stroke-width="20"/>
<path d="M564 287L737 467" stroke="#2A265B" stroke-width="20"/>
<path d="M588 -73L1105 465" stroke="#2A265B" stroke-width="20"/>
<path d="M753 -99L1292 460" stroke="#2A265B" stroke-width="20"/>
<path d="M944 -99L1483 460" stroke="#2A265B" stroke-width="20"/>
<path d="M1135 -99L1619.5 393.5" stroke="#2A265B" stroke-width="20"/>
<path d="M1326 -63L1630 252" stroke="#2A265B" stroke-width="20"/>
<path d="M1483 -99L1629 53" stroke="#2A265B" stroke-width="20"/>
</g>
<mask id="path-37-inside-3" fill="white">
<path d="M1657 396.69C1657 451.919 1612.23 496.69 1557 496.69L636 496.69C580.772 496.69 536 451.919 536 396.69L536 -25.8124C536 -81.0408 580.772 -125.813 636 -125.813L1557 -125.812C1612.23 -125.812 1657 -81.0409 1657 -25.8124L1657 396.69Z"/>
</mask>
<path d="M1657 396.69C1657 451.919 1612.23 496.69 1557 496.69L636 496.69C580.772 496.69 536 451.919 536 396.69L536 -25.8124C536 -81.0408 580.772 -125.813 636 -125.813L1557 -125.812C1612.23 -125.812 1657 -81.0409 1657 -25.8124L1657 396.69Z" fill="url(#paint1_linear)"/>
<path d="M1557 476.69L636 476.69L636 516.69L1557 516.69L1557 476.69ZM556 396.69L556 -25.8124L516 -25.8124L516 396.69L556 396.69ZM636 -105.813L1557 -105.812L1557 -145.812L636 -145.813L636 -105.813ZM1637 -25.8124L1637 396.69L1677 396.69L1677 -25.8124L1637 -25.8124ZM1557 -105.812C1601.18 -105.812 1637 -69.9952 1637 -25.8124L1677 -25.8124C1677 -92.0866 1623.27 -145.812 1557 -145.812L1557 -105.812ZM556 -25.8124C556 -69.9952 591.817 -105.813 636 -105.813L636 -145.813C569.726 -145.813 516 -92.0865 516 -25.8124L556 -25.8124ZM636 476.69C591.817 476.69 556 440.873 556 396.69L516 396.69C516 462.965 569.726 516.69 636 516.69L636 476.69ZM1557 516.69C1623.27 516.69 1677 462.964 1677 396.69L1637 396.69C1637 440.873 1601.18 476.69 1557 476.69L1557 516.69Z" fill="#FCCD93" mask="url(#path-37-inside-3)"/>
<rect x="248" y="388" width="230" height="69" rx="34.5" fill="#5D55C0" stroke="#2A265B" stroke-width="20"/>
<rect x="328" y="317" width="69" height="69" rx="34.5" fill="#5D55C0" stroke="#2A265B" stroke-width="20"/>
<rect x="248" y="462" width="230" height="69" rx="34.5" fill="#5D55C0" stroke="#2A265B" stroke-width="20"/>
<rect x="248" y="537" width="230" height="69" rx="34.5" fill="#5D55C0" stroke="#2A265B" stroke-width="20"/>
<rect x="1715" y="388" width="230" height="69" rx="34.5" fill="#5D55C0" stroke="#2A265B" stroke-width="20"/>
<rect x="1795" y="317" width="69" height="69" rx="34.5" fill="#5D55C0" stroke="#2A265B" stroke-width="20"/>
<rect x="1715" y="462" width="230" height="69" rx="34.5" fill="#5D55C0" stroke="#2A265B" stroke-width="20"/>
<rect x="1715" y="537" width="230" height="69" rx="34.5" fill="#5D55C0" stroke="#2A265B" stroke-width="20"/>
</g>
<defs>
<filter id="filter0_b" x="443" y="-2211" width="1307" height="2830" filterUnits="userSpaceOnUse" color-interpolation-filters="sRGB">
<feFlood flood-opacity="0" result="BackgroundImageFix"/>
<feGaussianBlur in="BackgroundImage" stdDeviation="2"/>
<feComposite in2="SourceAlpha" operator="in" result="effect1_backgroundBlur"/>
<feBlend mode="normal" in="SourceGraphic" in2="effect1_backgroundBlur" result="shape"/>
</filter>
<linearGradient id="paint0_linear" x1="573.5" y1="-804" x2="1617" y2="972.5" gradientUnits="userSpaceOnUse">
<stop offset="0.00417328" stop-color="#FAA8B6"/>
<stop offset="1" stop-color="#FAA8C9" stop-opacity="0"/>
</linearGradient>
<linearGradient id="paint1_linear" x1="1262.5" y1="976" x2="891.5" y2="-287.5" gradientUnits="userSpaceOnUse">
<stop stop-color="#2A265B"/>
<stop offset="0.715981" stop-color="#2A265B" stop-opacity="0"/>
</linearGradient>
<clipPath id="clip0">
<rect width="2193" height="852" fill="white"/>
</clipPath>
</defs>
</svg>
