<svg width="2193" height="857" viewBox="0 0 2193 857" fill="none" xmlns="http://www.w3.org/2000/svg">
<g clip-path="url(#clip0)">
<path fill-rule="evenodd" clip-rule="evenodd" d="M1917.86 -689C1917.95 -694.155 1918 -699.322 1918 -704.5C1918 -1158.2 1550.2 -1526 1096.5 -1526C642.798 -1526 275 -1158.2 275 -704.5C275 -699.322 275.048 -694.155 275.143 -689H275V1472H1918V-689H1917.86Z" fill="#2A265B"/>
<path fill-rule="evenodd" clip-rule="evenodd" d="M1887.58 -661.609C1887.67 -666.699 1887.72 -671.8 1887.72 -676.912C1887.72 -1124.86 1533.41 -1488 1096.36 -1488C659.303 -1488 305 -1124.86 305 -676.912C305 -671.8 305.046 -666.699 305.138 -661.609H305V1472H1887.72V-661.609H1887.58Z" fill="url(#paint0_linear)"/>
<mask id="path-3-inside-1" fill="white">
<path fill-rule="evenodd" clip-rule="evenodd" d="M1789.88 -682.753C1789.96 -687.051 1790 -691.358 1790 -695.675C1790 -1079.14 1479.51 -1390 1096.5 -1390C713.491 -1390 403 -1079.14 403 -695.675C403 -691.358 403.039 -687.051 403.118 -682.753H403V1473H1790V-682.753H1789.88Z"/>
</mask>
<path fill-rule="evenodd" clip-rule="evenodd" d="M1789.88 -682.753C1789.96 -687.051 1790 -691.358 1790 -695.675C1790 -1079.14 1479.51 -1390 1096.5 -1390C713.491 -1390 403 -1079.14 403 -695.675C403 -691.358 403.039 -687.051 403.118 -682.753H403V1473H1790V-682.753H1789.88Z" fill="#7FDCC4"/>
<path d="M1789.88 -682.753L1769.89 -683.118L1769.51 -662.753H1789.88V-682.753ZM403.118 -682.753V-662.753H423.486L423.114 -683.118L403.118 -682.753ZM403 -682.753V-702.753H383V-682.753H403ZM403 1473H383V1493H403V1473ZM1790 1473V1493H1810V1473H1790ZM1790 -682.753H1810V-702.753H1790V-682.753ZM1770 -695.675C1770 -691.48 1769.96 -687.294 1769.89 -683.118L1809.88 -682.388C1809.96 -686.808 1810 -691.237 1810 -695.675H1770ZM1096.5 -1370C1468.44 -1370 1770 -1068.12 1770 -695.675H1810C1810 -1090.16 1490.58 -1410 1096.5 -1410V-1370ZM423 -695.675C423 -1068.12 724.559 -1370 1096.5 -1370V-1410C702.422 -1410 383 -1090.16 383 -695.675H423ZM423.114 -683.118C423.038 -687.294 423 -691.48 423 -695.675H383C383 -691.237 383.04 -686.808 383.121 -682.389L423.114 -683.118ZM403 -662.753H403.118V-702.753H403V-662.753ZM423 1473V-682.753H383V1473H423ZM1790 1453H403V1493H1790V1453ZM1770 -682.753V1473H1810V-682.753H1770ZM1789.88 -662.753H1790V-702.753H1789.88V-662.753Z" fill="#2A265B" mask="url(#path-3-inside-1)"/>
<g filter="url(#filter0_b)">
<path fill-rule="evenodd" clip-rule="evenodd" d="M1745.69 -688C1745.76 -692.01 1745.8 -696.028 1745.8 -700.055C1745.8 -1059.01 1455.05 -1350 1096.4 -1350C737.746 -1350 447 -1059.01 447 -700.055C447 -696.028 447.037 -692.01 447.109 -688H447V1472H1746V-688H1745.69Z" fill="#2A265B"/>
</g>
<mask id="path-6-inside-2" fill="white">
<path fill-rule="evenodd" clip-rule="evenodd" d="M1657 -673.5V458C1657 513.228 1612.23 558 1557 558H636C580.771 558 536 513.228 536 458V-673.5V-680.975C536 -680.989 536.011 -681 536.025 -681V-681C536.038 -681 536.049 -681.011 536.049 -681.025C540.077 -987.112 789.456 -1234 1096.5 -1234C1403.54 -1234 1652.92 -987.112 1656.95 -681.025C1656.95 -681.011 1656.96 -681 1656.98 -681V-681C1656.99 -681 1657 -680.989 1657 -680.975V-673.5Z"/>
</mask>
<path fill-rule="evenodd" clip-rule="evenodd" d="M1657 -673.5V458C1657 513.228 1612.23 558 1557 558H636C580.771 558 536 513.228 536 458V-673.5V-680.975C536 -680.989 536.011 -681 536.025 -681V-681C536.038 -681 536.049 -681.011 536.049 -681.025C540.077 -987.112 789.456 -1234 1096.5 -1234C1403.54 -1234 1652.92 -987.112 1656.95 -681.025C1656.95 -681.011 1656.96 -681 1656.98 -681V-681C1656.99 -681 1657 -680.989 1657 -680.975V-673.5Z" fill="#2A265B"/>
<path d="M536.049 -681.025L556.048 -680.761L536.049 -681.025ZM1656.95 -681.025L1636.95 -680.761L1656.95 -681.025ZM1637 -673.5V458H1677V-673.5H1637ZM1557 538H636V578H1557V538ZM556 458V-673.5H516V458H556ZM556 -673.5V-680.975H516V-673.5H556ZM556.048 -680.761C559.931 -975.921 800.414 -1214 1096.5 -1214V-1254C778.499 -1254 520.222 -998.303 516.051 -681.288L556.048 -680.761ZM1096.5 -1214C1392.59 -1214 1633.07 -975.921 1636.95 -680.761L1676.95 -681.288C1672.78 -998.303 1414.5 -1254 1096.5 -1254V-1214ZM1637 -680.975V-673.5H1677V-680.975H1637ZM1656.98 -661C1645.94 -661 1637 -669.943 1637 -680.975H1677C1677 -692.035 1668.03 -701 1656.98 -701V-661ZM536.025 -661C547.125 -661 555.905 -669.95 556.048 -680.761L516.051 -681.288C516.193 -692.072 524.951 -701 536.025 -701V-661ZM556 -680.975C556 -669.943 547.057 -661 536.025 -661V-701C524.965 -701 516 -692.034 516 -680.975H556ZM1636.95 -680.761C1637.09 -669.955 1645.87 -661 1656.98 -661V-701C1668.05 -701 1676.81 -692.067 1676.95 -681.288L1636.95 -680.761ZM636 538C591.817 538 556 502.183 556 458H516C516 524.274 569.726 578 636 578V538ZM1637 458C1637 502.183 1601.18 538 1557 538V578C1623.27 578 1677 524.274 1677 458H1637Z" fill="#FCCD93" mask="url(#path-6-inside-2)"/>
<rect x="363" y="-8" width="20" height="185" rx="10" fill="#2A265B"/>
<rect x="363" y="488" width="20" height="732" rx="10" fill="#2A265B"/>
<rect x="1849" y="-8" width="20" height="185" rx="10" fill="#2A265B"/>
<rect x="1849" y="488" width="20" height="732" rx="10" fill="#2A265B"/>
<mask id="path-12-inside-3" fill="white">
<path d="M1657 1253.69C1657 1308.92 1612.23 1353.69 1557 1353.69L636 1353.69C580.772 1353.69 536 1308.92 536 1253.69L536 831.188C536 775.959 580.772 731.187 636 731.187L1557 731.188C1612.23 731.188 1657 775.959 1657 831.188L1657 1253.69Z"/>
</mask>
<path d="M1657 1253.69C1657 1308.92 1612.23 1353.69 1557 1353.69L636 1353.69C580.772 1353.69 536 1308.92 536 1253.69L536 831.188C536 775.959 580.772 731.187 636 731.187L1557 731.188C1612.23 731.188 1657 775.959 1657 831.188L1657 1253.69Z" fill="#2A265B"/>
<path d="M536 831.188L556 831.188L536 831.188ZM536 1253.69L516 1253.69L536 1253.69ZM1557 1333.69L636 1333.69L636 1373.69L1557 1373.69L1557 1333.69ZM556 1253.69L556 831.188L516 831.188L516 1253.69L556 1253.69ZM636 751.187L1557 751.188L1557 711.188L636 711.187L636 751.187ZM1637 831.188L1637 1253.69L1677 1253.69L1677 831.188L1637 831.188ZM1557 751.188C1601.18 751.188 1637 787.005 1637 831.188L1677 831.188C1677 764.913 1623.27 711.188 1557 711.188L1557 751.188ZM556 831.188C556 787.005 591.817 751.187 636 751.187L636 711.187C569.726 711.187 516 764.914 516 831.188L556 831.188ZM636 1333.69C591.817 1333.69 556 1297.87 556 1253.69L516 1253.69C516 1319.96 569.726 1373.69 636 1373.69L636 1333.69ZM1557 1373.69C1623.27 1373.69 1677 1319.96 1677 1253.69L1637 1253.69C1637 1297.87 1601.18 1333.69 1557 1333.69L1557 1373.69Z" fill="#FCCD93" mask="url(#path-12-inside-3)"/>
<mask id="mask0" mask-type="alpha" maskUnits="userSpaceOnUse" x="536" y="731" width="1121" height="623">
<rect x="536" y="731" width="1121" height="622.503" fill="#C4C4C4"/>
</mask>
<g mask="url(#mask0)">
<path d="M591.415 760L1160.57 1351" stroke="#FCCD93" stroke-width="20" stroke-linecap="round" stroke-linejoin="round"/>
<path d="M377.86 730.321L975.942 1351" stroke="#FCCD93" stroke-width="20" stroke-linecap="round" stroke-linejoin="round"/>
<path d="M192.318 730.321L790.399 1351" stroke="#FCCD93" stroke-width="20" stroke-linecap="round" stroke-linejoin="round"/>
<path d="M47.0005 723.687L645.082 1344.37" stroke="#FCCD93" stroke-width="20" stroke-linecap="round" stroke-linejoin="round"/>
<path d="M754.378 730.321L1352.46 1351" stroke="#FCCD93" stroke-width="20" stroke-linecap="round" stroke-linejoin="round"/>
<path d="M945.356 730.321L1543.44 1351" stroke="#FCCD93" stroke-width="20" stroke-linecap="round" stroke-linejoin="round"/>
<path d="M1136.33 730.321L1643.72 1246.5" stroke="#FCCD93" stroke-width="20" stroke-linecap="round" stroke-linejoin="round"/>
<path d="M1830.25 730.321L1232.16 1351" stroke="#FCCD93" stroke-width="20" stroke-linecap="round" stroke-linejoin="round"/>
<path d="M1608.51 764L1043.97 1351" stroke="#FCCD93" stroke-width="20" stroke-linecap="round" stroke-linejoin="round"/>
<path d="M1292.65 730.321L1890.73 1351" stroke="#FCCD93" stroke-width="20" stroke-linecap="round" stroke-linejoin="round"/>
<path d="M1483.63 730.321L2081.71 1351" stroke="#FCCD93" stroke-width="20" stroke-linecap="round" stroke-linejoin="round"/>
<path d="M2011.03 730.321L1412.95 1351" stroke="#FCCD93" stroke-width="20" stroke-linecap="round" stroke-linejoin="round"/>
<path d="M1448.29 730.321L850.207 1351" stroke="#FCCD93" stroke-width="20" stroke-linecap="round" stroke-linejoin="round"/>
<path d="M1257.31 730.321L659.23 1351" stroke="#FCCD93" stroke-width="20" stroke-linecap="round" stroke-linejoin="round"/>
<path d="M1076.3 730L556.781 1275" stroke="#FCCD93" stroke-width="20" stroke-linecap="round" stroke-linejoin="round"/>
<path d="M884.869 730.321L286.788 1351" stroke="#FCCD93" stroke-width="20" stroke-linecap="round" stroke-linejoin="round"/>
<path d="M693.891 730.321L95.8097 1351" stroke="#FCCD93" stroke-width="20" stroke-linecap="round" stroke-linejoin="round"/>
<path d="M588 784L1105 1322" stroke="#2A265B" stroke-width="20"/>
<path d="M753 758L1292 1317" stroke="#2A265B" stroke-width="20"/>
<path d="M944 758L1483 1317" stroke="#2A265B" stroke-width="20"/>
<path d="M1135 758L1619.5 1250.5" stroke="#2A265B" stroke-width="20"/>
<path d="M1326 794L1630 1109" stroke="#2A265B" stroke-width="20"/>
<path d="M1483 758L1629 910" stroke="#2A265B" stroke-width="20"/>
</g>
<mask id="path-38-inside-4" fill="white">
<path d="M1657 1253.69C1657 1308.92 1612.23 1353.69 1557 1353.69L636 1353.69C580.772 1353.69 536 1308.92 536 1253.69L536 831.188C536 775.959 580.772 731.187 636 731.187L1557 731.188C1612.23 731.188 1657 775.959 1657 831.188L1657 1253.69Z"/>
</mask>
<path d="M1657 1253.69C1657 1308.92 1612.23 1353.69 1557 1353.69L636 1353.69C580.772 1353.69 536 1308.92 536 1253.69L536 831.188C536 775.959 580.772 731.187 636 731.187L1557 731.188C1612.23 731.188 1657 775.959 1657 831.188L1657 1253.69Z" fill="url(#paint1_linear)"/>
<path d="M536 831.188L556 831.188L536 831.188ZM536 1253.69L516 1253.69L536 1253.69ZM1557 1333.69L636 1333.69L636 1373.69L1557 1373.69L1557 1333.69ZM556 1253.69L556 831.188L516 831.188L516 1253.69L556 1253.69ZM636 751.187L1557 751.188L1557 711.188L636 711.187L636 751.187ZM1637 831.188L1637 1253.69L1677 1253.69L1677 831.188L1637 831.188ZM1557 751.188C1601.18 751.188 1637 787.005 1637 831.188L1677 831.188C1677 764.913 1623.27 711.188 1557 711.188L1557 751.188ZM556 831.188C556 787.005 591.817 751.187 636 751.187L636 711.187C569.726 711.187 516 764.914 516 831.188L556 831.188ZM636 1333.69C591.817 1333.69 556 1297.87 556 1253.69L516 1253.69C516 1319.96 569.726 1373.69 636 1373.69L636 1333.69ZM1557 1373.69C1623.27 1373.69 1677 1319.96 1677 1253.69L1637 1253.69C1637 1297.87 1601.18 1333.69 1557 1333.69L1557 1373.69Z" fill="#FCCD93" mask="url(#path-38-inside-4)"/>
</g>
<defs>
<filter id="filter0_b" x="443" y="-1354" width="1307" height="2830" filterUnits="userSpaceOnUse" color-interpolation-filters="sRGB">
<feFlood flood-opacity="0" result="BackgroundImageFix"/>
<feGaussianBlur in="BackgroundImage" stdDeviation="2"/>
<feComposite in2="SourceAlpha" operator="in" result="effect1_backgroundBlur"/>
<feBlend mode="normal" in="SourceGraphic" in2="effect1_backgroundBlur" result="shape"/>
</filter>
<linearGradient id="paint0_linear" x1="573.5" y1="53.0001" x2="1617" y2="1829.5" gradientUnits="userSpaceOnUse">
<stop offset="0.00417328" stop-color="#FAA8B6"/>
<stop offset="1" stop-color="#FAA8C9" stop-opacity="0"/>
</linearGradient>
<linearGradient id="paint1_linear" x1="1262.5" y1="1833" x2="891.5" y2="569.5" gradientUnits="userSpaceOnUse">
<stop stop-color="#2A265B"/>
<stop offset="0.715981" stop-color="#2A265B" stop-opacity="0"/>
</linearGradient>
<clipPath id="clip0">
<rect width="2193" height="857" fill="white"/>
</clipPath>
</defs>
</svg>
