<svg width="2193" height="857" viewBox="0 0 2193 857" fill="none" xmlns="http://www.w3.org/2000/svg">
<g clip-path="url(#clip0)">
<path fill-rule="evenodd" clip-rule="evenodd" d="M1917.86 -452C1917.95 -457.155 1918 -462.322 1918 -467.5C1918 -921.202 1550.2 -1289 1096.5 -1289C642.798 -1289 275 -921.202 275 -467.5C275 -462.322 275.048 -457.155 275.143 -452H275V1709H1918V-452H1917.86Z" fill="#2A265B"/>
<path fill-rule="evenodd" clip-rule="evenodd" d="M1887.58 -424.609C1887.67 -429.699 1887.72 -434.8 1887.72 -439.912C1887.72 -887.864 1533.41 -1251 1096.36 -1251C659.303 -1251 305 -887.864 305 -439.912C305 -434.8 305.046 -429.699 305.138 -424.609H305V1709H1887.72V-424.609H1887.58Z" fill="url(#paint0_linear)"/>
<mask id="path-3-inside-1" fill="white">
<path fill-rule="evenodd" clip-rule="evenodd" d="M1789.88 -437.601C1789.96 -441.948 1790 -446.305 1790 -450.672C1790 -838.557 1479.51 -1153 1096.5 -1153C713.491 -1153 403 -838.557 403 -450.672C403 -446.305 403.039 -441.948 403.118 -437.601H403V1743H1790V-437.601H1789.88Z"/>
</mask>
<path fill-rule="evenodd" clip-rule="evenodd" d="M1789.88 -437.601C1789.96 -441.948 1790 -446.305 1790 -450.672C1790 -838.557 1479.51 -1153 1096.5 -1153C713.491 -1153 403 -838.557 403 -450.672C403 -446.305 403.039 -441.948 403.118 -437.601H403V1743H1790V-437.601H1789.88Z" fill="#7FDCC4"/>
<path d="M1789.88 -437.601L1769.89 -437.961L1769.52 -417.601H1789.88V-437.601ZM403.118 -437.601V-417.601H423.481L423.114 -437.961L403.118 -437.601ZM403 -437.601V-457.601H383V-437.601H403ZM403 1743H383V1763H403V1743ZM1790 1743V1763H1810V1743H1790ZM1790 -437.601H1810V-457.601H1790V-437.601ZM1770 -450.672C1770 -446.425 1769.96 -442.188 1769.89 -437.961L1809.88 -437.24C1809.96 -441.708 1810 -446.185 1810 -450.672H1770ZM1096.5 -1133C1468.23 -1133 1770 -827.75 1770 -450.672H1810C1810 -849.363 1490.79 -1173 1096.5 -1173V-1133ZM423 -450.672C423 -827.75 724.774 -1133 1096.5 -1133V-1173C702.207 -1173 383 -849.363 383 -450.672H423ZM423.114 -437.961C423.038 -442.189 423 -446.426 423 -450.672H383C383 -446.185 383.04 -441.708 383.121 -437.241L423.114 -437.961ZM403 -417.601H403.118V-457.601H403V-417.601ZM423 1743V-437.601H383V1743H423ZM1790 1723H403V1763H1790V1723ZM1770 -437.601V1743H1810V-437.601H1770ZM1789.88 -417.601H1790V-457.601H1789.88V-417.601Z" fill="#2A265B" mask="url(#path-3-inside-1)"/>
<g filter="url(#filter0_b)">
<path fill-rule="evenodd" clip-rule="evenodd" d="M1745.69 -451C1745.76 -455.01 1745.8 -459.028 1745.8 -463.055C1745.8 -822.01 1455.05 -1113 1096.4 -1113C737.746 -1113 447 -822.01 447 -463.055C447 -459.028 447.037 -455.01 447.109 -451H447V1709H1746V-451H1745.69Z" fill="#2A265B"/>
</g>
<mask id="path-6-inside-2" fill="white">
<path fill-rule="evenodd" clip-rule="evenodd" d="M1657 -436.5V695C1657 750.228 1612.23 795 1557 795H636C580.771 795 536 750.228 536 695V-436.5V-443.975C536 -443.989 536.011 -444 536.025 -444V-444C536.038 -444 536.049 -444.011 536.049 -444.025C540.077 -750.112 789.456 -997 1096.5 -997C1403.54 -997 1652.92 -750.112 1656.95 -444.025C1656.95 -444.011 1656.96 -444 1656.98 -444V-444C1656.99 -444 1657 -443.989 1657 -443.975V-436.5Z"/>
</mask>
<path fill-rule="evenodd" clip-rule="evenodd" d="M1657 -436.5V695C1657 750.228 1612.23 795 1557 795H636C580.771 795 536 750.228 536 695V-436.5V-443.975C536 -443.989 536.011 -444 536.025 -444V-444C536.038 -444 536.049 -444.011 536.049 -444.025C540.077 -750.112 789.456 -997 1096.5 -997C1403.54 -997 1652.92 -750.112 1656.95 -444.025C1656.95 -444.011 1656.96 -444 1656.98 -444V-444C1656.99 -444 1657 -443.989 1657 -443.975V-436.5Z" fill="#2A265B"/>
<path d="M536.049 -444.025L556.048 -443.761L536.049 -444.025ZM1656.95 -444.025L1636.95 -443.761L1656.95 -444.025ZM1637 -436.5V695H1677V-436.5H1637ZM1557 775H636V815H1557V775ZM556 695V-436.5H516V695H556ZM556 -436.5V-443.975H516V-436.5H556ZM556.048 -443.761C559.931 -738.921 800.414 -977 1096.5 -977V-1017C778.499 -1017 520.222 -761.303 516.051 -444.288L556.048 -443.761ZM1096.5 -977C1392.59 -977 1633.07 -738.921 1636.95 -443.761L1676.95 -444.288C1672.78 -761.303 1414.5 -1017 1096.5 -1017V-977ZM1637 -443.975V-436.5H1677V-443.975H1637ZM1656.98 -424C1645.94 -424 1637 -432.943 1637 -443.975H1677C1677 -455.035 1668.03 -464 1656.98 -464V-424ZM536.025 -424C547.125 -424 555.905 -432.95 556.048 -443.761L516.051 -444.288C516.193 -455.072 524.951 -464 536.025 -464V-424ZM556 -443.975C556 -432.943 547.057 -424 536.025 -424V-464C524.965 -464 516 -455.034 516 -443.975H556ZM1636.95 -443.761C1637.09 -432.955 1645.87 -424 1656.98 -424V-464C1668.05 -464 1676.81 -455.067 1676.95 -444.288L1636.95 -443.761ZM636 775C591.817 775 556 739.183 556 695H516C516 761.274 569.726 815 636 815V775ZM1637 695C1637 739.183 1601.18 775 1557 775V815C1623.27 815 1677 761.274 1677 695H1637Z" fill="#FCCD93" mask="url(#path-6-inside-2)"/>
<rect x="248" y="-64" width="230" height="69" rx="34.5" fill="#7FDCC4" stroke="#2A265B" stroke-width="20"/>
<rect x="248" y="10" width="230" height="69" rx="34.5" fill="#7FDCC4" stroke="#2A265B" stroke-width="20"/>
<rect x="248" y="85" width="230" height="69" rx="34.5" fill="#7FDCC4" stroke="#2A265B" stroke-width="20"/>
<rect x="1715" y="-64" width="230" height="69" rx="34.5" fill="#7FDCC4" stroke="#2A265B" stroke-width="20"/>
<rect x="1715" y="10" width="230" height="69" rx="34.5" fill="#7FDCC4" stroke="#2A265B" stroke-width="20"/>
<rect x="1715" y="85" width="230" height="69" rx="34.5" fill="#7FDCC4" stroke="#2A265B" stroke-width="20"/>
<rect x="363" y="229" width="20" height="185" rx="10" fill="#2A265B"/>
<rect x="363" y="725" width="20" height="732" rx="10" fill="#2A265B"/>
<rect x="1849" y="229" width="20" height="185" rx="10" fill="#2A265B"/>
<rect x="1849" y="725" width="20" height="732" rx="10" fill="#2A265B"/>
</g>
<defs>
<filter id="filter0_b" x="443" y="-1117" width="1307" height="2830" filterUnits="userSpaceOnUse" color-interpolation-filters="sRGB">
<feFlood flood-opacity="0" result="BackgroundImageFix"/>
<feGaussianBlur in="BackgroundImage" stdDeviation="2"/>
<feComposite in2="SourceAlpha" operator="in" result="effect1_backgroundBlur"/>
<feBlend mode="normal" in="SourceGraphic" in2="effect1_backgroundBlur" result="shape"/>
</filter>
<linearGradient id="paint0_linear" x1="573.5" y1="290" x2="1617" y2="2066.5" gradientUnits="userSpaceOnUse">
<stop offset="0.00417328" stop-color="#FAA8B6"/>
<stop offset="1" stop-color="#FAA8C9" stop-opacity="0"/>
</linearGradient>
<clipPath id="clip0">
<rect width="2193" height="857" fill="white"/>
</clipPath>
</defs>
</svg>
