<svg width="2193" height="769" viewBox="0 0 2193 769" fill="none" xmlns="http://www.w3.org/2000/svg">
<g clip-path="url(#clip0)">
<path fill-rule="evenodd" clip-rule="evenodd" d="M1917.86 101C1917.95 95.8448 1918 90.678 1918 85.5C1918 -368.202 1550.2 -736 1096.5 -736C642.798 -736 275 -368.202 275 85.5C275 90.678 275.048 95.8448 275.143 101H275V2262H1918V101H1917.86Z" fill="#2A265B"/>
<path fill-rule="evenodd" clip-rule="evenodd" d="M1887.58 128.391C1887.67 123.301 1887.72 118.2 1887.72 113.088C1887.72 -334.864 1533.41 -698 1096.36 -698C659.303 -698 305 -334.864 305 113.088C305 118.2 305.046 123.301 305.138 128.391H305V2262H1887.72V128.391H1887.58Z" fill="url(#paint0_linear)"/>
<mask id="path-3-inside-1" fill="white">
<path fill-rule="evenodd" clip-rule="evenodd" d="M1789.88 115.399C1789.96 111.052 1790 106.695 1790 102.328C1790 -285.557 1479.51 -600 1096.5 -600C713.491 -600 403 -285.557 403 102.328C403 106.695 403.039 111.052 403.118 115.399H403V2296H1790V115.399H1789.88Z"/>
</mask>
<path fill-rule="evenodd" clip-rule="evenodd" d="M1789.88 115.399C1789.96 111.052 1790 106.695 1790 102.328C1790 -285.557 1479.51 -600 1096.5 -600C713.491 -600 403 -285.557 403 102.328C403 106.695 403.039 111.052 403.118 115.399H403V2296H1790V115.399H1789.88Z" fill="#7FDCC4"/>
<path d="M1789.88 115.399L1769.89 115.039L1769.52 135.399H1789.88V115.399ZM403.118 115.399V135.399H423.481L423.114 115.039L403.118 115.399ZM403 115.399V95.399H383V115.399H403ZM403 2296H383V2316H403V2296ZM1790 2296V2316H1810V2296H1790ZM1790 115.399H1810V95.399H1790V115.399ZM1770 102.328C1770 106.575 1769.96 110.812 1769.89 115.039L1809.88 115.76C1809.96 111.292 1810 106.815 1810 102.328H1770ZM1096.5 -580C1468.23 -580 1770 -274.75 1770 102.328H1810C1810 -296.363 1490.79 -620 1096.5 -620V-580ZM423 102.328C423 -274.75 724.774 -580 1096.5 -580V-620C702.207 -620 383 -296.363 383 102.328H423ZM423.114 115.039C423.038 110.811 423 106.574 423 102.328H383C383 106.815 383.04 111.292 383.121 115.759L423.114 115.039ZM403 135.399H403.118V95.399H403V135.399ZM423 2296V115.399H383V2296H423ZM1790 2276H403V2316H1790V2276ZM1770 115.399V2296H1810V115.399H1770ZM1789.88 135.399H1790V95.399H1789.88V135.399Z" fill="#2A265B" mask="url(#path-3-inside-1)"/>
<g filter="url(#filter0_b)">
<path fill-rule="evenodd" clip-rule="evenodd" d="M1745.69 102C1745.76 97.9904 1745.8 93.9718 1745.8 89.9447C1745.8 -269.01 1455.05 -560 1096.4 -560C737.746 -560 447 -269.01 447 89.9447C447 93.9718 447.037 97.9904 447.109 102H447V2262H1746V102H1745.69Z" fill="#2A265B"/>
</g>
<mask id="path-6-inside-2" fill="white">
<path fill-rule="evenodd" clip-rule="evenodd" d="M1657 116.5V1248C1657 1303.23 1612.23 1348 1557 1348H636C580.771 1348 536 1303.23 536 1248V116.5V109.025C536 109.011 536.011 109 536.025 109V109C536.038 109 536.049 108.989 536.049 108.975C540.077 -197.112 789.456 -444 1096.5 -444C1403.54 -444 1652.92 -197.112 1656.95 108.975C1656.95 108.989 1656.96 109 1656.98 109V109C1656.99 109 1657 109.011 1657 109.025V116.5Z"/>
</mask>
<path fill-rule="evenodd" clip-rule="evenodd" d="M1657 116.5V1248C1657 1303.23 1612.23 1348 1557 1348H636C580.771 1348 536 1303.23 536 1248V116.5V109.025C536 109.011 536.011 109 536.025 109V109C536.038 109 536.049 108.989 536.049 108.975C540.077 -197.112 789.456 -444 1096.5 -444C1403.54 -444 1652.92 -197.112 1656.95 108.975C1656.95 108.989 1656.96 109 1656.98 109V109C1656.99 109 1657 109.011 1657 109.025V116.5Z" fill="#2A265B"/>
<path d="M536.049 108.975L556.048 109.239L536.049 108.975ZM1656.95 108.975L1636.95 109.239L1656.95 108.975ZM1637 116.5V1248H1677V116.5H1637ZM1557 1328H636V1368H1557V1328ZM556 1248V116.5H516V1248H556ZM556 116.5V109.025H516V116.5H556ZM556.048 109.239C559.931 -185.921 800.414 -424 1096.5 -424V-464C778.499 -464 520.222 -208.303 516.051 108.712L556.048 109.239ZM1096.5 -424C1392.59 -424 1633.07 -185.921 1636.95 109.239L1676.95 108.712C1672.78 -208.303 1414.5 -464 1096.5 -464V-424ZM1637 109.025V116.5H1677V109.025H1637ZM1656.98 129C1645.94 129 1637 120.057 1637 109.025H1677C1677 97.9654 1668.03 89 1656.98 89V129ZM536.025 129C547.125 129 555.905 120.05 556.048 109.239L516.051 108.712C516.193 97.928 524.951 89 536.025 89V129ZM556 109.025C556 120.057 547.057 129 536.025 129V89C524.965 89 516 97.9655 516 109.025H556ZM1636.95 109.239C1637.09 120.045 1645.87 129 1656.98 129V89C1668.05 89 1676.81 97.9326 1676.95 108.712L1636.95 109.239ZM636 1328C591.817 1328 556 1292.18 556 1248H516C516 1314.27 569.726 1368 636 1368V1328ZM1637 1248C1637 1292.18 1601.18 1328 1557 1328V1368C1623.27 1368 1677 1314.27 1677 1248H1637Z" fill="#FCCD93" mask="url(#path-6-inside-2)"/>
<rect x="248" y="489" width="230" height="69" rx="34.5" fill="#7FDCC4" stroke="#2A265B" stroke-width="20"/>
<rect x="248" y="563" width="230" height="69" rx="34.5" fill="#7FDCC4" stroke="#2A265B" stroke-width="20"/>
<rect x="248" y="638" width="230" height="69" rx="34.5" fill="#7FDCC4" stroke="#2A265B" stroke-width="20"/>
<rect x="1715" y="489" width="230" height="69" rx="34.5" fill="#7FDCC4" stroke="#2A265B" stroke-width="20"/>
<rect x="1715" y="563" width="230" height="69" rx="34.5" fill="#7FDCC4" stroke="#2A265B" stroke-width="20"/>
<rect x="1715" y="638" width="230" height="69" rx="34.5" fill="#7FDCC4" stroke="#2A265B" stroke-width="20"/>
<mask id="mask0" mask-type="alpha" maskUnits="userSpaceOnUse" x="334" y="-656" width="1525" height="772">
<path fill-rule="evenodd" clip-rule="evenodd" d="M1096.5 -636C686.422 -636 354 -303.789 354 106C354 111.523 349.523 116 344 116C338.477 116 334 111.523 334 106C334 -314.847 675.389 -656 1096.5 -656C1517.61 -656 1859 -314.847 1859 106C1859 111.523 1854.52 116 1849 116C1843.48 116 1839 111.523 1839 106C1839 -303.789 1506.58 -636 1096.5 -636Z" fill="#2A265B"/>
</mask>
<g mask="url(#mask0)">
<rect x="263" y="-275" width="1666" height="353" fill="#2A265B"/>
</g>
<mask id="mask1" mask-type="alpha" maskUnits="userSpaceOnUse" x="488" y="-507" width="1217" height="599">
<path fill-rule="evenodd" clip-rule="evenodd" d="M1096.5 -491.482C769.245 -491.482 503.961 -233.717 503.961 84.2409C503.961 88.5261 500.388 92 495.98 92C491.573 92 488 88.5261 488 84.2409C488 -242.297 760.44 -507 1096.5 -507C1432.56 -507 1705 -242.297 1705 84.2409C1705 88.5261 1701.43 92 1697.02 92C1692.61 92 1689.04 88.5261 1689.04 84.2409C1689.04 -233.717 1423.76 -491.482 1096.5 -491.482Z" fill="#5D55C0"/>
</mask>
<g mask="url(#mask1)">
<rect x="431" y="4" width="1330" height="88" fill="#5D55C0"/>
</g>
</g>
<defs>
<filter id="filter0_b" x="443" y="-564" width="1307" height="2830" filterUnits="userSpaceOnUse" color-interpolation-filters="sRGB">
<feFlood flood-opacity="0" result="BackgroundImageFix"/>
<feGaussianBlur in="BackgroundImage" stdDeviation="2"/>
<feComposite in2="SourceAlpha" operator="in" result="effect1_backgroundBlur"/>
<feBlend mode="normal" in="SourceGraphic" in2="effect1_backgroundBlur" result="shape"/>
</filter>
<linearGradient id="paint0_linear" x1="573.5" y1="843" x2="1617" y2="2619.5" gradientUnits="userSpaceOnUse">
<stop offset="0.00417328" stop-color="#FAA8B6"/>
<stop offset="1" stop-color="#FAA8C9" stop-opacity="0"/>
</linearGradient>
<clipPath id="clip0">
<rect width="2193" height="769" fill="white"/>
</clipPath>
</defs>
</svg>
