<svg width="2193" height="769" viewBox="0 0 2193 769" fill="none" xmlns="http://www.w3.org/2000/svg">
<g clip-path="url(#clip0)">
<path fill-rule="evenodd" clip-rule="evenodd" d="M1917.86 837C1917.95 831.845 1918 826.678 1918 821.5C1918 367.798 1550.2 0 1096.5 0C642.798 0 275 367.798 275 821.5C275 826.678 275.048 831.845 275.143 837H275V2998H1918V837H1917.86Z" fill="#2A265B"/>
<path fill-rule="evenodd" clip-rule="evenodd" d="M1887.58 864.391C1887.67 859.301 1887.72 854.2 1887.72 849.088C1887.72 401.136 1533.41 38 1096.36 38C659.303 38 305 401.136 305 849.088C305 854.2 305.046 859.301 305.138 864.391H305V2998H1887.72V864.391H1887.58Z" fill="url(#paint0_linear)"/>
<mask id="path-3-inside-1" fill="white">
<path fill-rule="evenodd" clip-rule="evenodd" d="M1789.88 851.399C1789.96 847.052 1790 842.695 1790 838.328C1790 450.443 1479.51 136 1096.5 136C713.491 136 403 450.443 403 838.328C403 842.695 403.039 847.052 403.118 851.399H403V3032H1790V851.399H1789.88Z"/>
</mask>
<path fill-rule="evenodd" clip-rule="evenodd" d="M1789.88 851.399C1789.96 847.052 1790 842.695 1790 838.328C1790 450.443 1479.51 136 1096.5 136C713.491 136 403 450.443 403 838.328C403 842.695 403.039 847.052 403.118 851.399H403V3032H1790V851.399H1789.88Z" fill="#7FDCC4"/>
<path d="M1789.88 851.399L1769.89 851.039L1769.52 871.399H1789.88V851.399ZM403.118 851.399V871.399H423.481L423.114 851.039L403.118 851.399ZM403 851.399V831.399H383V851.399H403ZM403 3032H383V3052H403V3032ZM1790 3032V3052H1810V3032H1790ZM1790 851.399H1810V831.399H1790V851.399ZM1770 838.328C1770 842.575 1769.96 846.812 1769.89 851.039L1809.88 851.76C1809.96 847.292 1810 842.815 1810 838.328H1770ZM1096.5 156C1468.23 156 1770 461.25 1770 838.328H1810C1810 439.637 1490.79 116 1096.5 116V156ZM423 838.328C423 461.25 724.774 156 1096.5 156V116C702.207 116 383 439.637 383 838.328H423ZM423.114 851.039C423.038 846.811 423 842.574 423 838.328H383C383 842.815 383.04 847.292 383.121 851.759L423.114 851.039ZM403 871.399H403.118V831.399H403V871.399ZM423 3032V851.399H383V3032H423ZM1790 3012H403V3052H1790V3012ZM1770 851.399V3032H1810V851.399H1770ZM1789.88 871.399H1790V831.399H1789.88V871.399Z" fill="#2A265B" mask="url(#path-3-inside-1)"/>
<g filter="url(#filter0_b)">
<path fill-rule="evenodd" clip-rule="evenodd" d="M1745.69 838C1745.76 833.99 1745.8 829.972 1745.8 825.945C1745.8 466.99 1455.05 176 1096.4 176C737.746 176 447 466.99 447 825.945C447 829.972 447.037 833.99 447.109 838H447V2998H1746V838H1745.69Z" fill="#2A265B"/>
</g>
<mask id="path-6-inside-2" fill="white">
<path fill-rule="evenodd" clip-rule="evenodd" d="M1657 852.5V1984C1657 2039.23 1612.23 2084 1557 2084H636C580.771 2084 536 2039.23 536 1984V852.5V845.025C536 845.011 536.011 845 536.025 845V845C536.038 845 536.049 844.989 536.049 844.975C540.077 538.888 789.456 292 1096.5 292C1403.54 292 1652.92 538.888 1656.95 844.975C1656.95 844.989 1656.96 845 1656.98 845V845C1656.99 845 1657 845.011 1657 845.025V852.5Z"/>
</mask>
<path fill-rule="evenodd" clip-rule="evenodd" d="M1657 852.5V1984C1657 2039.23 1612.23 2084 1557 2084H636C580.771 2084 536 2039.23 536 1984V852.5V845.025C536 845.011 536.011 845 536.025 845V845C536.038 845 536.049 844.989 536.049 844.975C540.077 538.888 789.456 292 1096.5 292C1403.54 292 1652.92 538.888 1656.95 844.975C1656.95 844.989 1656.96 845 1656.98 845V845C1656.99 845 1657 845.011 1657 845.025V852.5Z" fill="#2A265B"/>
<path d="M536.049 844.975L556.048 845.239L536.049 844.975ZM1656.95 844.975L1636.95 845.239L1656.95 844.975ZM1637 852.5V1984H1677V852.5H1637ZM1557 2064H636V2104H1557V2064ZM556 1984V852.5H516V1984H556ZM556 852.5V845.025H516V852.5H556ZM556.048 845.239C559.931 550.079 800.414 312 1096.5 312V272C778.499 272 520.222 527.697 516.051 844.712L556.048 845.239ZM1096.5 312C1392.59 312 1633.07 550.079 1636.95 845.239L1676.95 844.712C1672.78 527.697 1414.5 272 1096.5 272V312ZM1637 845.025V852.5H1677V845.025H1637ZM1656.98 865C1645.94 865 1637 856.057 1637 845.025H1677C1677 833.965 1668.03 825 1656.98 825V865ZM536.025 865C547.125 865 555.905 856.05 556.048 845.239L516.051 844.712C516.193 833.928 524.951 825 536.025 825V865ZM556 845.025C556 856.057 547.057 865 536.025 865V825C524.965 825 516 833.966 516 845.025H556ZM1636.95 845.239C1637.09 856.045 1645.87 865 1656.98 865V825C1668.05 825 1676.81 833.933 1676.95 844.712L1636.95 845.239ZM636 2064C591.817 2064 556 2028.18 556 1984H516C516 2050.27 569.726 2104 636 2104V2064ZM1637 1984C1637 2028.18 1601.18 2064 1557 2064V2104C1623.27 2104 1677 2050.27 1677 1984H1637Z" fill="#FCCD93" mask="url(#path-6-inside-2)"/>
<mask id="mask0" mask-type="alpha" maskUnits="userSpaceOnUse" x="334" y="80" width="1525" height="772">
<path fill-rule="evenodd" clip-rule="evenodd" d="M1096.5 100C686.422 100 354 432.211 354 842C354 847.523 349.523 852 344 852C338.477 852 334 847.523 334 842C334 421.153 675.389 80 1096.5 80C1517.61 80 1859 421.153 1859 842C1859 847.523 1854.52 852 1849 852C1843.48 852 1839 847.523 1839 842C1839 432.211 1506.58 100 1096.5 100Z" fill="#2A265B"/>
</mask>
<g mask="url(#mask0)">
<path d="M1486 140.5C1486 212.573 1311.84 271 1097 271C882.161 271 708 212.573 708 140.5C708 68.4268 882.161 10 1097 10C1311.84 10 1486 68.4268 1486 140.5Z" fill="#2A265B"/>
<rect x="263" y="461" width="1666" height="353" fill="#2A265B"/>
</g>
<mask id="mask1" mask-type="alpha" maskUnits="userSpaceOnUse" x="488" y="229" width="1217" height="599">
<path fill-rule="evenodd" clip-rule="evenodd" d="M1096.5 244.518C769.245 244.518 503.961 502.283 503.961 820.241C503.961 824.526 500.388 828 495.98 828C491.573 828 488 824.526 488 820.241C488 493.703 760.44 229 1096.5 229C1432.56 229 1705 493.703 1705 820.241C1705 824.526 1701.43 828 1697.02 828C1692.61 828 1689.04 824.526 1689.04 820.241C1689.04 502.283 1423.76 244.518 1096.5 244.518Z" fill="#5D55C0"/>
</mask>
<g mask="url(#mask1)">
<path d="M1224 264C1224 319.781 1166.69 365 1096 365C1025.31 365 968 319.781 968 264C968 208.219 1025.31 163 1096 163C1166.69 163 1224 208.219 1224 264Z" fill="#5D55C0"/>
<rect x="431" y="740" width="1330" height="88" fill="#5D55C0"/>
</g>
<path d="M1350 10H842V75L912.778 212H1284.7L1350 75V10Z" fill="#5D55C0" stroke="#2A265B" stroke-width="20" stroke-linecap="round" stroke-linejoin="round"/>
<mask id="path-15-inside-3" fill="white">
<path fill-rule="evenodd" clip-rule="evenodd" d="M1264.87 66.1111V131.889H928.128V66.1111H1264.87ZM924 62H1269V136H924V62Z"/>
</mask>
<path fill-rule="evenodd" clip-rule="evenodd" d="M1264.87 66.1111V131.889H928.128V66.1111H1264.87ZM924 62H1269V136H924V62Z" fill="#484848"/>
<path d="M1264.87 66.1111H1314.87V16.1111H1264.87V66.1111ZM1264.87 131.889V181.889H1314.87V131.889H1264.87ZM928.128 131.889H878.128V181.889H928.128V131.889ZM928.128 66.1111V16.1111H878.128V66.1111H928.128ZM924 62V12H874V62H924ZM1269 62H1319V12H1269V62ZM1269 136V186H1319V136H1269ZM924 136H874V186H924V136ZM1264.87 16.1111H928.128V116.111H1264.87V16.1111ZM1314.87 131.889V66.1111H1214.87V131.889H1314.87ZM928.128 181.889H1264.87V81.8889H928.128V181.889ZM878.128 66.1111V131.889H978.128V66.1111H878.128ZM874 62V136H974V62H874ZM1269 12H924V112H1269V12ZM1319 136V62H1219V136H1319ZM924 186H1269V86H924V186Z" fill="#7FDCC4" mask="url(#path-15-inside-3)"/>
<path fill-rule="evenodd" clip-rule="evenodd" d="M984.349 80.4177H1206.75L1227.42 97.5199H1265.45V101.631H1228.27L1206.75 117.5H984.349L964.629 101.631H927.633V97.5199H965.413L984.349 80.4177Z" fill="#FAA8C9"/>
<path d="M1003.83 92.1923H1000.51V102.287C1000.51 103.789 1000.18 104.54 999.536 104.54C998.89 104.54 998.567 103.545 998.567 101.556H995.658C995.658 103.467 995.962 104.667 996.569 105.155C997.176 105.662 998.048 105.916 999.184 105.916C1000.32 105.916 1001.19 105.818 1001.8 105.623C1002.43 105.428 1002.88 105.145 1003.15 104.774C1003.6 104.131 1003.83 103.302 1003.83 102.287V92.1923Z" fill="#2A265B"/>
<path d="M1026.84 92.1923H1024.9V101.205C1024.9 102.277 1024.63 103.067 1024.08 103.575C1023.53 104.062 1022.82 104.306 1021.96 104.306C1020.38 104.306 1019.58 103.272 1019.58 101.205V92.1923H1016.26V101.205C1016.26 104.345 1018.09 105.916 1021.76 105.916C1022.99 105.916 1024.11 105.603 1025.11 104.979C1026.26 104.257 1026.84 102.999 1026.84 101.205V92.1923Z" fill="#2A265B"/>
<path d="M1042.96 99.5952L1046.75 105.652H1050.25L1045.78 98.4833L1049.81 92.1923H1047.87L1044.23 97.9859H1042.85V92.1923H1039.53V105.652H1042.85V99.5952H1042.96Z" fill="#2A265B"/>
<path d="M1069.7 104.072H1064.62V99.5952H1068.82V98.0152H1064.62V93.7724H1069.35V92.1923H1061.3V105.652H1069.7V104.072Z" fill="#2A265B"/>
<path d="M1090.9 95.645C1090.9 94.7477 1090.56 93.9479 1089.88 93.2457C1089.21 92.5434 1088.04 92.1923 1086.35 92.1923H1081.59V105.652H1086.88C1088.52 105.652 1089.69 105.301 1090.38 104.599C1091.06 103.897 1091.4 103.048 1091.4 102.053C1091.4 100.376 1090.58 99.2636 1088.94 98.7174C1090.25 98.2297 1090.9 97.2056 1090.9 95.645ZM1084.91 98.1907V93.392H1086.03C1087.09 93.392 1087.61 94.1918 1087.61 95.7913C1087.61 97.3909 1087.09 98.1907 1086.03 98.1907H1084.91ZM1084.91 104.452V99.3611H1086.44C1086.95 99.3611 1087.35 99.6342 1087.64 100.18C1087.96 100.707 1088.11 101.331 1088.11 102.053C1088.11 103.653 1087.56 104.452 1086.44 104.452H1084.91Z" fill="#2A265B"/>
<path d="M1110.82 104.072H1106.59V92.1923H1103.27V105.652H1110.82V104.072Z" fill="#2A265B"/>
<path d="M1127.04 105.916C1129.18 105.916 1130.66 105.311 1131.48 104.101C1132.32 102.872 1132.74 101.156 1132.74 98.9515C1132.74 96.7472 1132.32 95.0306 1131.48 93.8016C1130.66 92.5532 1129.18 91.929 1127.04 91.929C1124.77 91.929 1123.22 92.6215 1122.4 94.0065C1121.68 95.2354 1121.31 96.874 1121.31 98.9222C1121.31 102.394 1122.26 104.56 1124.16 105.418C1124.95 105.75 1125.91 105.916 1127.04 105.916ZM1124.63 98.9222C1124.63 97.7713 1124.69 96.8057 1124.81 96.0254C1124.93 95.2452 1125.17 94.5917 1125.55 94.065C1125.92 93.5188 1126.42 93.2457 1127.04 93.2457C1128.65 93.2457 1129.45 95.1379 1129.45 98.9222C1129.45 102.707 1128.65 104.599 1127.04 104.599C1126.42 104.599 1125.92 104.335 1125.55 103.809C1125.17 103.263 1124.93 102.599 1124.81 101.819C1124.69 101.039 1124.63 100.073 1124.63 98.9222Z" fill="#2A265B"/>
<path d="M1154.61 95.8499C1154.47 94.5429 1154.06 93.5675 1153.38 92.9238C1152.69 92.2606 1151.52 91.929 1149.88 91.929C1147.72 91.929 1146.23 92.4947 1145.38 93.6261C1144.54 94.7575 1144.12 96.5229 1144.12 98.9222C1144.12 101.322 1144.54 103.087 1145.38 104.218C1146.23 105.35 1147.63 105.916 1149.59 105.916C1151.54 105.916 1152.85 105.525 1153.49 104.745C1154.14 103.965 1154.52 102.765 1154.64 101.146L1151.96 101.029C1151.96 102.199 1151.81 103.077 1151.49 103.662C1151.2 104.248 1150.62 104.54 1149.76 104.54C1148.92 104.54 1148.32 104.121 1147.97 103.282C1147.62 102.443 1147.44 100.99 1147.44 98.9222C1147.44 96.835 1147.62 95.3817 1147.97 94.5624C1148.32 93.7236 1148.9 93.3042 1149.7 93.3042C1150.53 93.3042 1151.08 93.548 1151.38 94.0357C1151.69 94.5234 1151.89 95.2647 1151.96 96.2595L1154.61 95.8499Z" fill="#2A265B"/>
<path d="M1169.64 99.5952L1173.43 105.652H1176.93L1172.46 98.4833L1176.49 92.1923H1174.55L1170.9 97.9859H1169.52V92.1923H1166.2V105.652H1169.52V99.5952H1169.64Z" fill="#2A265B"/>
<path d="M1187.36 96.0547C1187.36 97.2836 1187.64 98.22 1188.18 98.8637C1188.73 99.5074 1189.63 99.9659 1190.89 100.239L1191.86 100.444C1192.97 100.697 1193.72 100.961 1194.09 101.234C1194.46 101.487 1194.65 101.926 1194.65 102.551C1194.65 103.175 1194.43 103.672 1194 104.043C1193.59 104.413 1193.01 104.599 1192.27 104.599C1190.72 104.599 1189.87 103.506 1189.71 101.322L1187.07 101.731C1187.22 103.155 1187.72 104.209 1188.57 104.891C1189.41 105.574 1190.64 105.916 1192.27 105.916C1193.91 105.916 1195.17 105.564 1196.03 104.862C1196.89 104.16 1197.32 103.185 1197.32 101.936C1197.32 100.668 1197.05 99.722 1196.5 99.0978C1195.95 98.4541 1195.04 97.9859 1193.77 97.6933L1192.65 97.4007C1191.59 97.1471 1190.89 96.8837 1190.53 96.6106C1190.18 96.3375 1190.01 95.8986 1190.01 95.2939C1190.01 94.6697 1190.2 94.1723 1190.59 93.8016C1190.98 93.431 1191.53 93.2457 1192.24 93.2457C1192.94 93.2457 1193.5 93.5285 1193.91 94.0942C1194.32 94.6599 1194.55 95.4597 1194.59 96.4936L1197.23 96.1132C1197.06 94.6892 1196.56 93.6358 1195.73 92.9531C1194.93 92.2703 1193.77 91.929 1192.24 91.929C1188.99 91.929 1187.36 93.3042 1187.36 96.0547Z" fill="#2A265B"/>
</g>
<defs>
<filter id="filter0_b" x="443" y="172" width="1307" height="2830" filterUnits="userSpaceOnUse" color-interpolation-filters="sRGB">
<feFlood flood-opacity="0" result="BackgroundImageFix"/>
<feGaussianBlur in="BackgroundImage" stdDeviation="2"/>
<feComposite in2="SourceAlpha" operator="in" result="effect1_backgroundBlur"/>
<feBlend mode="normal" in="SourceGraphic" in2="effect1_backgroundBlur" result="shape"/>
</filter>
<linearGradient id="paint0_linear" x1="573.5" y1="1579" x2="1617" y2="3355.5" gradientUnits="userSpaceOnUse">
<stop offset="0.00417328" stop-color="#FAA8B6"/>
<stop offset="1" stop-color="#FAA8C9" stop-opacity="0"/>
</linearGradient>
<clipPath id="clip0">
<rect width="2193" height="769" fill="white"/>
</clipPath>
</defs>
</svg>
